<svg width="137" height="68" viewBox="0 0 137 68" fill="none" xmlns="http://www.w3.org/2000/svg">
<path fill-rule="evenodd" clip-rule="evenodd" d="M9.29354 14.1191C8.50863 16.9649 8.29745 19.9399 8.55941 22.876C8.71639 24.6338 8.9725 26.9678 9.80843 28.811C7.09164 27.1348 3.7994 26.6108 0.445398 27.1118C-0.264563 27.2178 -0.0665645 28.2368 0.6224 28.1919L0.767176 28.1821L0.77743 28.1812C0.810633 28.2051 0.837488 28.2329 0.876551 28.25C5.76229 30.3853 8.3641 34.1929 11.128 38.2378C11.8438 39.2852 12.5704 40.3486 13.3504 41.4028C16.5365 45.709 20.8165 49.1318 25.7125 51.3071C34.0955 55.0308 47.1114 55.4551 54.0665 48.5029C54.0941 48.4961 54.1222 48.4902 54.1502 48.4844C54.1715 48.48 54.1927 48.4756 54.2137 48.4702L54.2515 48.4609C54.2965 48.4497 54.3363 48.4312 54.3704 48.4082C57.8211 48.4683 61.3621 47.437 64.5723 46.3711C62.3309 47.7227 60.2191 49.4263 58.1651 51.0835C57.8162 51.3648 57.4691 51.6445 57.1234 51.9214C55.1573 53.4951 53.2723 55.2783 52.4744 57.7393C51.9854 59.2481 51.6602 61.6953 53.2884 62.667C54.4854 63.3818 55.7579 62.8452 56.9537 62.3403C57.3839 62.1587 57.804 61.9815 58.2074 61.8682C58.3575 61.8262 58.4859 61.7852 58.5982 61.749C59.2044 61.5547 59.3443 61.5098 59.9102 62.2783C60.1705 62.6314 60.3035 63.1108 60.4329 63.5772C60.5116 63.8608 60.5889 64.1392 60.6925 64.3814C61.0494 65.2192 61.4603 66.0122 62.1864 66.5913C63.6715 67.7783 65.3614 67.4424 66.4683 65.9712C67.9554 63.9951 68.3963 60.9502 68.7303 58.5752C68.9403 57.0781 69.0474 55.5713 69.1024 54.061C69.3992 55.5151 69.7694 56.9531 70.1634 58.3623L70.3333 58.9741C70.9188 61.0903 71.5719 63.4517 72.9713 65.1392C73.8324 66.1782 75.6004 67.5391 77.0333 66.7573C77.6202 66.4375 77.931 65.7808 78.2213 65.168C78.2674 65.0703 78.3131 64.9736 78.3592 64.8799C78.421 64.7544 78.4835 64.6343 78.5494 64.522L78.6065 64.4238C79.1822 63.4419 79.7349 62.4985 81.0133 62.3662C81.5352 62.312 82.1785 62.4775 82.8021 62.6304L82.9754 62.6729L83.1082 62.7041L83.2779 62.7422L83.4124 62.77C83.5863 62.8047 83.7545 62.8316 83.9134 62.8452C88.6654 63.2471 88.1624 57.8482 86.1353 55.1191C83.5113 51.5894 78.7103 49.5703 74.2852 48.2012C77.0701 48.7149 79.9991 49.1621 82.7879 48.9878C89.8543 55.4331 102.452 54.9409 110.635 51.3071C115.53 49.1328 119.811 45.709 122.996 41.4028C123.776 40.3482 124.503 39.2847 125.219 38.2373C127.982 34.1929 130.584 30.3857 135.47 28.25C135.498 28.2378 135.519 28.2207 135.541 28.2031L135.569 28.1812L135.724 28.1919C136.413 28.2368 136.611 27.2178 135.901 27.1118C132.547 26.6108 129.256 27.1338 126.539 28.811C127.374 26.9678 127.631 24.6338 127.787 22.876C128.049 19.9399 127.839 16.9639 127.055 14.1191C125.312 7.80177 120.603 2.04591 114.245 0.025887C113.697 -0.147941 113.326 0.601082 113.871 0.859871L113.931 0.889657L113.953 0.901375C113.978 0.914559 114.003 0.927742 114.028 0.93995C114.664 2.13575 115.37 3.28907 116.076 4.44288C116.493 5.12501 116.91 5.80714 117.313 6.49805C112.399 1.9087 104.272 0.678719 97.9415 1.40577C89.7354 2.34913 80.4364 7.03077 75.6224 13.9287C75.3033 14.3867 75.8333 15.1011 76.3184 14.7388C76.4473 14.8682 76.6405 14.938 76.8575 14.8711C77.2618 14.7471 77.6612 14.6152 78.0574 14.479C78.5987 14.293 79.1344 14.0982 79.6693 13.9038C80.7476 13.5117 81.8223 13.1211 82.9324 12.8042C83.4796 12.648 84.0352 12.5093 84.6043 12.397C87.0333 11.919 89.5333 11.7349 92.0045 11.8648C95.8475 12.0669 99.1805 13.208 102.586 14.4917C99.2484 14.4551 95.4534 15.8428 93.5494 17.7158C93.1563 18.103 93.6795 18.7051 94.1375 18.5479C94.2801 18.4985 94.4205 18.4463 94.5596 18.3926C94.731 18.3262 94.9002 18.2573 95.0699 18.1885L95.1585 18.1519C95.1805 18.1538 95.1983 18.1631 95.2235 18.1621C99.8653 18.0747 104.397 19.6787 107.246 23.5191C110.513 27.9229 109.856 33.229 106.847 37.562C104.086 41.5317 99.9134 44.334 95.3824 45.9077C93.1817 46.6714 90.9979 47.0088 88.7977 47.2207C89.4947 46.7393 90.0772 46.1226 90.4024 45.3223C91.045 43.7319 90.4119 42.9649 89.5814 41.96L89.5719 41.9482C89.4337 41.7808 89.2896 41.606 89.1453 41.4199C88.1143 40.0903 88.0474 38.9673 88.3624 37.5352C88.5264 36.7891 88.5032 36.0684 88.1124 35.4072C87.2484 33.9443 85.5814 34.2232 84.1883 34.6714C79.5775 36.1543 74.4954 39.2402 71.1073 42.8394C71.6749 41.0186 72.4693 39.2866 73.2603 37.562C74.8599 34.0747 76.4461 30.6162 76.1182 26.5103C75.9823 24.8032 75.3563 23.0264 73.4813 22.6304C71.7249 22.2593 70.5704 23.1895 69.3629 24.1616C69.137 24.3438 68.9093 24.5274 68.6754 24.7041C67.2794 25.7598 66.5865 25.0606 65.8297 24.2969C65.189 23.6499 64.5028 22.957 63.3053 23.2441C61.5775 23.6572 60.8494 26.0303 60.5994 27.5181C59.6283 33.2774 62.4874 38.9893 65.2694 43.8662L65.2655 43.8721C62.5523 39.48 58.2113 35.8272 53.6483 33.437C52.3133 32.7373 50.5055 31.9834 49.1493 33.0952C48.1746 33.8945 48.231 34.9688 48.2884 36.063C48.3375 36.9946 48.3873 37.9414 47.8014 38.7461C47.5538 39.0859 47.3016 39.3877 47.0618 39.6743L47.0582 39.6787C46.1905 40.7153 45.4845 41.5591 45.7364 43.3301C45.9923 45.1353 47.2193 46.3491 48.8014 47.1294C48.973 47.2139 49.1453 47.294 49.3187 47.3691C46.5164 47.1592 43.7545 46.8755 40.9654 45.9077C36.4334 44.335 32.2616 41.5317 29.5015 37.562C26.4906 33.229 25.8336 27.9229 29.1004 23.5191C31.9495 19.6787 36.4825 18.0747 41.1246 18.1621C41.1339 18.1621 41.1422 18.1607 41.1502 18.1592C41.1632 18.1563 41.1754 18.1528 41.1895 18.1519L41.2635 18.1826C41.5758 18.3096 41.888 18.4365 42.2105 18.5479C42.6695 18.7051 43.1915 18.103 42.7984 17.7158C40.8946 15.8428 37.0994 14.4561 33.7625 14.4917C37.1676 13.207 40.5006 12.0669 44.3436 11.8648C46.8165 11.7349 49.3155 11.9199 51.7435 12.397C53.4676 12.7368 55.0697 13.3189 56.6798 13.9043C57.2752 14.1206 57.8719 14.3374 58.4762 14.5425C58.8118 14.6563 59.15 14.7666 59.4915 14.8711C59.565 14.8936 59.6358 14.9004 59.7025 14.8945C59.7454 14.8911 59.7865 14.8823 59.8253 14.8687C59.8509 14.8599 59.8756 14.8491 59.8993 14.8364C59.9303 14.8203 59.9593 14.8008 59.9862 14.7793L60.0096 14.7593L60.0316 14.7388C60.5155 15.1011 61.0465 14.3867 60.7264 13.9287C55.9124 7.03077 46.6136 2.34913 38.4076 1.40577C32.0765 0.677742 23.9505 1.9087 19.0355 6.49805C19.4383 5.80763 19.8553 5.12598 20.2723 4.44483C20.6956 3.75294 21.1187 3.06104 21.5269 2.35987C21.7996 1.89161 22.0658 1.41895 22.3204 0.93995L22.3941 0.902352C22.422 0.888192 22.4498 0.873543 22.4786 0.859871C23.0225 0.601082 22.6515 -0.147941 22.1046 0.025887C15.7454 2.04688 11.0365 7.80274 9.29354 14.1191ZM82.1185 47.7788C83.2161 47.6528 84.3021 47.5674 85.38 47.4888C85.4776 47.4629 85.575 47.4351 85.6722 47.4058C85.7789 47.374 85.8853 47.3399 85.9913 47.3042L86.3067 47.1987L86.3826 47.1738C88.0594 46.6191 89.3331 46.1978 89.3433 44.3482C89.3472 43.6763 88.7066 42.9331 88.0701 42.1943C87.5518 41.5928 87.0365 40.9946 86.8743 40.4414C86.723 39.9253 86.8575 39.2427 86.9935 38.5527C87.2379 37.3115 87.4869 36.0474 86.0823 35.6899C84.0823 35.1821 74.8062 40.4424 71.1243 43.8491C71.3333 44.1372 71.4813 44.4512 71.5894 44.77C72.3897 44.5278 73.1798 44.2612 73.9654 43.9839C74.608 43.7573 75.2474 43.523 75.8868 43.2886C77.2266 42.7974 78.5662 42.3062 79.9324 41.8833C80.2513 41.7842 80.4334 42.249 80.1553 42.4111C77.6263 43.8843 74.6053 44.7002 71.7345 45.3413C71.7471 45.4482 71.7532 45.5542 71.7542 45.6592C71.7557 45.793 71.7491 45.9253 71.7374 46.0562C73.2054 45.916 74.6944 45.7251 76.1673 45.7681C76.4874 45.7783 76.5875 46.3052 76.2454 46.3521C75.0028 46.5225 73.7327 46.5342 72.473 46.5454C72.1969 46.5479 71.9212 46.5503 71.6463 46.5542C71.6182 46.6743 71.6033 46.7993 71.5633 46.9141L72.4346 47.0518L72.4427 47.0532C75.5357 47.544 78.7259 48.0503 81.8543 47.9482C81.8997 47.8613 81.9869 47.794 82.1185 47.7788ZM17.0965 8.71876C17.0936 8.72999 17.0955 8.73878 17.0936 8.75001C16.9376 8.97706 16.7716 9.19483 16.6295 9.43311C16.4325 9.76417 16.8814 10.0859 17.1224 9.77784C22.0086 3.54688 32.0606 1.90186 39.4256 3.04688C43.5035 3.68116 47.4115 5.22413 50.9386 7.34718C53.3795 8.8169 55.4224 10.6338 57.4815 12.4888C53.6314 10.71 48.8075 10.2529 44.8336 10.3931C39.7735 10.5718 33.4744 11.8447 29.6546 15.438C29.5936 15.4961 29.5645 15.563 29.5575 15.6289C29.5086 15.6631 29.4535 15.688 29.4066 15.7241C29.0836 15.9629 29.4224 16.3911 29.7545 16.2827C31.9134 15.5747 34.3316 15.8569 36.5055 16.3731C37.1495 16.5259 37.7586 16.7417 38.3585 16.9761C29.5015 17.2197 22.6805 26.645 26.2855 35.2607C30.1185 44.418 42.1414 50.1968 52.0316 48.8828C42.9005 53.7368 31.5675 53.5088 22.7044 47.9888C17.8075 44.938 14.6576 40.6768 11.5135 35.9609C9.49349 32.9302 7.06747 29.6611 3.74056 28.0278C4.80843 28.0327 5.86654 28.1528 6.92562 28.5479C9.16244 29.3818 11.3736 30.9058 13.0035 32.6309C13.2545 32.896 13.6424 32.5689 13.4376 32.273C13.1309 31.8296 12.804 31.4155 12.4591 31.0303C12.1495 30.6841 11.8255 30.3608 11.4886 30.0601C7.31551 19.521 10.8856 7.78614 20.3946 1.99317C18.8455 3.95411 17.8394 6.37794 17.0965 8.71876ZM61.7545 30.042C61.7332 29.002 62.2913 22.9102 65.8194 26.2441C66.3385 26.749 67.0584 27.3584 67.8524 27.1763C68.5753 27.0112 69.1749 26.3184 69.7662 25.6348C70.231 25.0972 70.6907 24.5659 71.2012 24.3013C75.6864 21.979 74.9002 29.5601 74.4534 31.6372C73.9781 33.8452 73.0782 35.8945 72.1803 37.9395C71.4556 39.5899 70.7325 41.2373 70.2345 42.9624C69.8595 42.6982 69.4403 42.5122 69.0094 42.438C69.0101 42.2261 69.0096 42.0142 69.0091 41.8023C69.0079 41.168 69.0067 40.5352 69.0369 39.9019C69.0491 39.6494 69.0662 39.397 69.0904 39.1441C69.1571 38.4478 69.2828 37.7632 69.4085 37.0781C69.5069 36.5425 69.6053 36.0068 69.6754 35.4653C69.6812 35.4224 69.6785 35.3848 69.6693 35.3521C69.6434 35.2617 69.5662 35.2119 69.4766 35.1992C69.3397 35.1802 69.1737 35.2481 69.1153 35.3892C68.2603 37.4741 68.0704 40.1431 68.3905 42.4141C68.1597 42.4351 67.929 42.4902 67.7039 42.5884L67.6793 42.5991C67.3084 39.4131 66.9144 36.1382 66.3333 32.9893C66.2803 32.7031 65.8494 32.7832 65.8424 33.0552C65.7594 36.1753 66.3743 39.7222 67.3394 42.6821C66.7674 42.7842 66.2274 43.0181 65.7794 43.3652C63.7733 39.2041 61.8485 34.707 61.7545 30.042ZM64.4954 45.3691L64.1226 45.4761C60.2313 46.5942 56.1085 47.7783 52.0484 46.9722C49.4764 46.4624 45.9654 44.7803 47.0543 41.5361C47.3194 40.7451 47.8765 40.273 48.4271 39.8062C48.9288 39.3809 49.4251 38.96 49.6893 38.3071C49.9503 37.6621 49.7921 37.1504 49.6312 36.6299C49.5489 36.3638 49.4659 36.0952 49.4378 35.8052C49.4195 35.6177 49.4244 35.4209 49.4674 35.21C50.0775 32.2139 54.4642 35.3047 55.8643 36.2915C55.972 36.3672 56.0621 36.4307 56.1314 36.478C59.0743 38.4883 61.6024 40.9712 64.1204 43.4712C62.2574 42.48 60.0274 41.6611 58.1295 41.208C57.8934 41.1514 57.7254 41.4951 57.9583 41.6152C58.7437 42.0205 59.5701 42.3389 60.3963 42.6572C60.7157 42.7803 61.0347 42.9033 61.3514 43.0313C61.723 43.1816 62.0938 43.3418 62.4657 43.5024L62.4854 43.5112C62.8294 43.6597 63.1744 43.8086 63.5213 43.9497C63.9808 44.1372 64.4442 44.3115 64.9144 44.4561L64.8878 44.5176C64.8765 44.543 64.8653 44.5684 64.8553 44.5942C61.4324 43.311 56.9803 42.7334 53.3285 42.5903C53.1334 42.582 53.0963 42.8794 53.2823 42.9273C53.9525 43.104 54.6317 43.2505 55.3153 43.3809C56.0733 43.5249 56.8368 43.6494 57.5992 43.7739L58.2501 43.8809C58.6519 43.9473 59.0531 44.0151 59.4525 44.0874C59.6844 44.1294 59.9166 44.1738 60.1488 44.2197L60.7794 44.3452L60.8014 44.3496C62.1085 44.6118 63.4207 44.875 64.7464 44.9273C64.7113 45.0664 64.6773 45.2051 64.6634 45.353C64.6104 45.3521 64.5562 45.3511 64.4954 45.3691ZM66.5311 62.897L66.5208 62.9277C66.2242 63.8218 65.8136 65.0586 65.1483 65.5684C63.0108 67.2075 62.0177 64.2632 61.4605 62.6123C61.398 62.4268 61.3409 62.2573 61.2884 62.1128L61.2472 62.0024L61.2274 61.9512C61.2105 61.9092 61.1942 61.8701 61.1783 61.835L61.1456 61.7622C60.8455 61.0938 60.4588 60.2334 59.6602 60.043C58.9168 59.8662 58.0765 60.3482 57.337 60.772C57.0033 60.9634 56.69 61.1431 56.4154 61.2451C51.8582 62.9331 53.7594 57.0884 55.3114 55.2173C56.8368 53.3784 58.7454 51.9092 60.6539 50.4404C62.1358 49.2998 63.6178 48.1592 64.9202 46.8452C64.9823 46.9941 65.055 47.1382 65.137 47.2764C65.262 47.4868 65.4083 47.6841 65.5694 47.8682C65.5606 47.875 65.5506 47.8799 65.5408 47.8848C65.5318 47.8892 65.5228 47.8936 65.515 47.8989C65.5098 47.9024 65.5052 47.9067 65.5013 47.9121C64.8712 48.7422 64.3436 49.6489 63.818 50.5518C63.6893 50.773 63.5606 50.9941 63.4305 51.2144C63.3653 51.3247 63.2996 51.4346 63.2335 51.544C63.1378 51.7026 63.0396 51.8604 62.9403 52.0176C62.795 52.2476 62.6468 52.4766 62.4986 52.7056L62.2362 53.1118C61.7977 53.7944 61.3722 54.4854 61.0323 55.2134C60.8805 55.5391 61.2904 55.9331 61.5662 55.625C62.3807 54.7139 63.0191 53.6382 63.6461 52.582L63.8194 52.29L63.9984 51.9912C64.7222 50.7891 65.4625 49.5732 65.9683 48.2612C66.0723 48.3491 66.1854 48.4253 66.2965 48.502C66.2794 48.523 66.2623 48.544 66.2503 48.5723C65.0604 51.4732 63.9005 54.627 63.3892 57.729C63.3433 58.0103 63.7034 58.104 63.8114 57.8452C65.0184 54.9463 65.8753 51.7949 66.7674 48.7822C67.1954 48.999 67.6583 49.145 68.1392 49.1763C68.1903 53.6592 68.1434 58.2564 66.6534 62.5352C66.6148 62.646 66.5741 62.7676 66.5311 62.897ZM68.5484 47.4873C67.5604 47.6084 66.5924 46.9204 66.2545 45.9981C65.8553 44.9082 66.7393 43.7632 67.7884 43.4321L67.8946 43.4497C68.9063 43.6108 69.911 43.772 70.2484 44.9443C70.5872 46.1279 69.7613 47.3394 68.5484 47.4873ZM83.5943 54.0474C85.6644 55.8359 89.0733 61.4312 83.5054 61.4941C83.2554 61.4971 83.0181 61.4727 82.7884 61.4351C82.5504 61.396 82.3201 61.3428 82.0924 61.2896C81.6385 61.1841 81.1934 61.0806 80.712 61.0982C80.6156 61.1016 80.5179 61.1099 80.4183 61.124C80.2376 61.1494 80.0506 61.1943 79.8553 61.2642C78.8187 61.6348 78.3499 62.376 77.836 63.1885C77.6981 63.4067 77.557 63.6304 77.4005 63.853C76.0863 65.7261 75.1094 65.8843 73.6893 63.8701C73.2103 63.189 72.8634 62.3994 72.5574 61.6323C71.5103 59.0044 70.8177 56.2764 70.1251 53.5479C69.807 52.2944 69.4888 51.041 69.1363 49.7974L69.1348 49.5396L69.1331 49.2759L69.1314 49.0884C69.1644 49.0801 69.1934 49.0664 69.2264 49.0571C69.2432 49.1611 69.2674 49.2691 69.3104 49.3872C69.4093 49.6533 69.5494 49.9092 69.6744 50.1641C70.0123 50.855 70.3763 51.5361 70.7655 52.2002C71.4635 53.396 72.2323 54.6113 73.1893 55.6162C73.4393 55.8779 73.8853 55.5391 73.6934 55.228C73.3123 54.6128 72.9034 54.0166 72.4945 53.4204C72.22 53.0205 71.9456 52.6206 71.6798 52.2149C71.4525 51.8687 71.2313 51.5181 71.0213 51.1592C70.9249 50.9937 70.8309 50.8037 70.7364 50.5996C70.669 50.4546 70.6016 50.3023 70.5328 50.147C70.3324 49.6948 70.1202 49.2163 69.8695 48.8091C69.9793 48.7544 70.0797 48.6851 70.1795 48.6162L70.2564 48.564C70.7393 49.1709 71.2181 49.7886 71.6983 50.4087C73.3004 52.4766 74.9207 54.5684 76.7803 56.356C76.9893 56.5571 77.3734 56.292 77.1973 56.0342C75.7313 53.8901 73.9232 51.9302 72.1365 49.9937C71.6173 49.4312 71.0999 48.8706 70.5933 48.3081L70.69 48.2232C70.7232 48.1934 70.7562 48.1636 70.7884 48.1328C70.825 48.0982 70.8609 48.0625 70.8956 48.0254C70.9136 48.0059 70.9315 47.9863 70.9488 47.9658L70.9803 47.9282C71.6439 48.1802 72.316 48.4253 72.991 48.6719L73.0697 48.7012L73.0748 48.7026C76.7869 50.0591 80.5836 51.4463 83.5943 54.0474ZM24.5311 45.3438C19.8172 41.3257 16.231 35.4268 15.4102 29.2007C11.8372 23.063 11.887 14.2691 15.8131 8.24464C15.9246 8.07423 16.1182 8.10743 16.224 8.22559C16.2852 8.29395 16.3172 8.39063 16.2872 8.49268C16.108 9.10645 15.9237 9.71192 15.7406 10.313C14.9127 13.0303 14.1119 15.6587 13.9481 18.5879C13.7743 21.707 14.2122 24.8428 15.2752 27.772C15.2533 27.4116 15.2332 27.0518 15.2301 26.6909C15.0982 10.5269 34.2801 3.60889 47.6922 7.24171C47.8834 7.29347 47.953 7.44825 47.9359 7.60255C47.9141 7.79639 47.7547 7.98927 47.5262 7.97462C40.5521 7.53272 33.7161 7.13966 27.2882 10.481C21.0672 13.7149 16.4102 19.9058 16.6292 27.1099C16.6912 29.1768 17.1021 31.2388 17.783 33.23C18.0291 30.8906 18.9632 28.4399 19.7572 26.8399C21.689 22.9419 24.8892 19.8257 28.9022 18.124C28.9906 18.0864 29.0702 18.0913 29.1339 18.1226C29.171 18.1406 29.203 18.1675 29.2281 18.2002C29.276 18.2622 29.2996 18.3442 29.2899 18.4243C29.2794 18.5088 29.2315 18.5913 29.1351 18.645C25.8292 20.481 23.0992 23.0537 21.2132 26.3521C19.8521 28.7329 18.4041 32.437 18.7113 35.54C20.4432 39.29 23.1192 42.6558 26.2611 45.106C31.9061 49.5078 39.0142 50.1118 45.9242 50.023C46.1561 50.02 46.1661 50.4067 45.9381 50.4258C38.2733 51.0498 30.6441 50.5537 24.5311 45.3438ZM115.955 1.98878C125.465 7.78175 129.034 19.5181 124.861 30.0562C124.149 30.6929 123.494 31.4268 122.912 32.2691C122.707 32.5659 123.097 32.8921 123.347 32.627C124.976 30.9019 127.186 29.3779 129.423 28.544C130.483 28.1489 131.54 28.0288 132.609 28.0239C129.281 29.6567 126.855 32.9258 124.836 35.957C121.691 40.6729 118.542 44.9341 113.645 47.9849C104.784 53.5059 93.4505 53.7339 84.3184 48.8789C94.2105 50.1929 106.232 44.4141 110.066 35.2568C113.67 26.6421 106.85 17.2158 97.9925 16.9722C98.3941 16.8159 98.7991 16.668 99.2159 16.541C99.4224 16.478 99.6319 16.4199 99.8453 16.3691C102.019 15.853 104.437 15.5698 106.597 16.2788C106.927 16.3877 107.266 15.96 106.944 15.7197C106.92 15.7017 106.892 15.686 106.865 15.6704L106.82 15.6436L106.792 15.625C106.786 15.5591 106.757 15.4917 106.695 15.4341C102.877 11.8408 96.5765 10.5679 91.5164 10.3892C87.5423 10.2481 82.7193 10.7051 78.8695 12.4849C80.9295 10.6309 82.9725 8.813 85.4134 7.34278C88.9405 5.21876 92.8494 3.67579 96.9263 3.04298C104.29 1.89698 114.343 3.54298 119.229 9.77393C119.47 10.082 119.92 9.75977 119.722 9.42872C119.662 9.32862 119.598 9.23243 119.533 9.1377C119.442 9.00636 119.348 8.87794 119.258 8.7461L119.257 8.73585C119.256 8.72901 119.256 8.72266 119.254 8.71485C118.51 6.37696 117.503 3.95313 115.955 1.98878ZM111.819 45.3438C116.532 41.3257 120.118 35.4268 120.939 29.2007C124.513 23.063 124.462 14.2691 120.539 8.24464C120.363 7.97608 119.983 8.21387 120.064 8.49268C120.243 9.10645 120.427 9.71192 120.61 10.313C121.438 13.0303 122.239 15.6587 122.403 18.5879C122.578 21.707 122.14 24.8428 121.076 27.772C121.085 27.6314 121.093 27.4907 121.1 27.3501C121.111 27.1304 121.119 26.9107 121.121 26.6909C121.254 10.5269 102.071 3.60889 88.659 7.24171C88.2259 7.35889 88.4149 8.00098 88.8248 7.97462C95.7989 7.53272 102.635 7.13966 109.063 10.481C115.283 13.7149 119.941 19.9058 119.722 27.1099C119.66 29.1768 119.249 31.2388 118.568 33.23C118.321 30.8906 117.388 28.4399 116.594 26.8399C114.661 22.9419 111.461 19.8257 107.448 18.124C107.106 17.979 106.898 18.4688 107.215 18.645C110.521 20.481 113.251 23.0537 115.137 26.3521C116.498 28.7329 117.947 32.437 117.639 35.54C115.906 39.29 113.231 42.6558 110.089 45.106C104.444 49.5078 97.336 50.1118 90.4259 50.023C90.1939 50.02 90.1839 50.4067 90.4119 50.4258C98.077 51.0498 105.706 50.5537 111.819 45.3438Z" fill="#F6F2E7"/>
</svg>
