<svg width="49" height="49" viewBox="0 0 49 49" fill="none" xmlns="http://www.w3.org/2000/svg">
<path d="M27.3388 35.0128C27.3572 35.069 27.3953 35.1181 27.4591 35.1449C30.8398 36.5669 34.2199 38.3199 38.0049 37.8653C40.5297 37.5624 44.1892 35.9612 44.7519 33.1565C45.3711 30.0659 41.7209 29.2718 39.4418 29.7552C36.0959 30.4655 32.8039 32.1197 30.4539 34.6177C29.293 34.5543 28.121 34.3947 26.9351 34.135C23.2244 33.3206 19.6524 31.5801 15.7931 31.6226C12.7614 31.656 9.72909 32.5684 7.18122 34.1997C5.99996 34.9559 4.68198 36.0175 3.59145 37.2517C4.18437 36.1489 4.85946 35.0913 5.63316 34.1003C8.96328 29.8363 13.5779 28.1232 18.4856 26.2754C19.7359 25.8045 21.0039 25.3479 22.2706 24.8822C23.9587 25.3244 25.7756 25.5003 27.5964 25.4395C30.6347 26.9073 33.9997 27.9074 37.3962 27.3979C39.8507 27.0296 43.9151 25.5101 43.9486 22.4961C43.9808 19.5919 40.2234 19.1563 38.0798 19.4892C34.3244 20.0733 30.753 22.3947 27.6714 24.5185C26.3041 24.5493 24.9486 24.478 23.5886 24.3916C26.496 23.2941 29.3647 22.0879 31.979 20.4403C32.9374 19.8359 33.8886 19.1642 34.8213 18.4453C36.3306 17.9417 39.2716 16.7558 41.2962 15.7832C42.839 15.0421 44.3871 14.286 45.6695 13.1334C47.4194 11.5623 50.1165 8.13553 48.0997 5.84687C46.179 3.66744 43.1552 4.82387 41.3922 6.53039C38.419 9.40774 37.2634 13.5527 35.1408 16.9985C33.4396 18.3851 31.6339 19.6351 29.6684 20.6378C26.3915 22.3097 22.8747 23.5668 19.377 24.8122C21.5811 23.0894 23.0568 20.611 24.2105 18.0601C24.4734 17.4792 24.7186 16.8866 24.9677 16.296C27.8554 13.6031 30.5289 10.5367 32.3984 7.04974C33.4041 5.17381 34.7517 0.96408 31.6805 0.106567C28.779 -0.703851 26.6834 3.30834 25.7184 5.3635C24.2269 8.53845 23.747 12.0143 24.313 15.4613C24.2341 15.6648 24.1572 15.8702 24.0763 16.0697C22.64 19.6135 20.8166 22.7845 17.9249 25.3322C16.9211 25.692 15.92 26.0543 14.9313 26.4305C13.9841 26.7909 13.0691 27.184 12.1862 27.6144C12.7516 26.9269 13.2597 26.1812 13.7027 25.3976C16.0449 23.5387 18.1142 21.2298 18.7012 18.2131C19.1607 15.8538 18.7282 12.2995 15.918 11.6356C13.2505 11.0057 11.1476 13.2185 10.6264 15.634C10.2878 17.2032 10.535 18.8234 10.9353 20.3585C11.3856 22.0892 12.6352 24.1091 12.4538 25.9078C12.4512 25.9281 12.4636 25.9392 12.4669 25.9556C11.9535 26.8308 11.3685 27.6556 10.6908 28.4038C8.1291 29.8644 5.90728 31.7443 4.14361 34.3325C1.342 38.4461 0.520321 42.9443 0.00167473 47.7832C-0.0298779 48.0782 0.394117 48.1221 0.455908 47.8395C0.951547 45.5443 1.25786 43.2295 1.97568 40.9951C2.80985 39.8988 3.4843 38.6783 4.43943 37.6501C5.75478 36.2353 7.33897 35.0396 9.07831 34.1893C9.92366 33.7759 10.7881 33.4495 11.665 33.1996C13.0612 33.1303 14.3943 33.4089 15.6551 33.9126C17.5134 36.3805 18.0413 39.6359 20.2269 41.8781C21.6876 43.376 25.0834 45.6117 26.9845 43.5912C28.7527 41.7113 27.0745 38.8451 25.5869 37.4048C23.2941 35.1841 19.8831 33.8681 16.7121 33.4763C15.9621 33.112 15.1976 32.8314 14.441 32.6796C16.3177 32.5056 18.226 32.6737 20.1152 33.1728C22.4106 33.7798 24.8652 34.5353 27.3388 35.0128ZM38.3513 33.6411C38.6188 33.4691 38.3605 33.0171 38.0732 33.1571C35.8133 34.2619 33.4955 34.6949 31.1251 34.653C33.1563 33.2991 35.2401 32.0497 37.5671 31.2478C38.8206 30.8155 40.2418 30.3393 41.59 30.5067C44.0433 30.8102 44.4318 33.1316 42.9613 34.7453C41.0234 36.8717 37.899 37.5225 35.1388 37.1726C33.1596 36.9221 31.4163 36.0515 29.602 35.3562C32.637 35.6793 35.6391 35.381 38.3513 33.6411ZM42.843 23.349C41.8274 26.0465 37.6151 26.8294 35.0915 26.7699C32.8592 26.7176 30.734 26.1302 28.6587 25.3787C30.9844 25.1831 33.2779 24.6062 35.2788 23.6885C35.363 23.6499 35.3341 23.508 35.2361 23.5269C33.1089 23.9305 30.9943 24.3158 28.8316 24.4688C31.0245 23.3588 33.0991 21.9735 35.3893 21.0891C37.3837 20.3186 44.4337 19.1269 42.843 23.349ZM39.5615 10.2973C40.8762 8.1231 44.0952 3.7649 47.0763 6.09084C50.0692 8.42595 44.8794 12.9719 42.9573 14.091C40.581 15.4757 38.0344 16.57 35.5878 17.8324C38.2632 15.6661 40.7519 13.1151 42.7332 10.4896C42.8982 10.2711 42.6004 9.94605 42.3808 10.1384C40.3661 11.9018 38.6234 13.9661 36.6152 15.7478C36.5114 15.8401 36.4049 15.9303 36.3004 16.0219C37.4764 14.1656 38.4177 12.1883 39.5615 10.2973ZM25.5133 14.9976C26.5552 12.4257 27.5143 9.8015 28.52 7.23877C28.5976 7.03993 28.3202 6.8751 28.1881 7.0504C26.5631 9.20824 25.6527 11.8861 24.7021 14.4416C24.6548 12.1248 24.9795 9.79234 25.7335 7.59852C26.1687 6.3322 26.7432 5.11036 27.4571 3.97551C28.1486 2.87599 29.2497 1.05958 30.6833 0.91437C33.6151 0.618721 32.7001 4.36797 32.1072 5.75203C31.5182 7.12365 30.6708 8.38801 29.8308 9.61639C28.5351 11.5126 27.0771 13.3081 25.5133 14.9976ZM15.6373 17.9894C15.6288 17.7651 15.2725 17.7284 15.2035 17.9351C14.4929 20.0596 14.2346 22.275 13.3077 24.3465C13.1572 24.6821 12.9941 25.0091 12.8239 25.3316C12.931 23.6322 12.0088 21.8152 11.6426 20.2192C11.0346 17.5708 10.7848 13.5429 14.0406 12.4787C18.0123 11.1803 18.5073 16.4713 17.7198 19.0464C17.0743 21.1585 15.7471 22.9304 14.1866 24.4616C15.1746 22.4058 15.7175 20.1512 15.6373 17.9894ZM23.2284 39.4972C22.2916 37.792 20.3577 35.7179 18.132 34.2808C19.8877 34.8309 21.6146 35.4857 23.1777 36.4636C24.2354 37.1255 25.2293 37.9313 25.9656 38.9452C26.4027 39.5469 26.8201 40.3423 26.9319 41.0906C27.1238 42.3765 26.0766 43.7802 24.7271 43.65C21.8631 43.374 19.7832 40.7498 18.648 38.3774C17.9814 36.9868 17.4233 35.5563 16.5399 34.3083C17.115 34.5935 17.6744 34.9205 18.2141 35.2862C20.0501 36.5309 21.3405 38.2276 22.9299 39.7255C23.0673 39.855 23.3197 39.6634 23.2284 39.4972Z" fill="#BD5449"/>
</svg>
