<svg width="937" height="832" viewBox="0 0 937 832" fill="none" xmlns="http://www.w3.org/2000/svg">
<path d="M425.103 767.711C440.994 786.317 468.253 832.196 496.572 831.193C523.859 830.245 549.265 785.356 562.06 766.595C601.605 708.599 632.992 633.821 632.031 562.055C685.106 576.985 742.084 578.215 795.711 565.858C830.731 557.785 864.409 544.17 894.806 524.885C910.768 514.748 938.041 500.638 936.67 478.286C935.821 464.26 921.725 450.475 913.751 440.154C898.199 420.007 881.219 400.977 862.84 383.403C834.733 356.555 803.544 332.958 769.187 314.648C746.524 302.574 719.18 290.5 690.917 283.473C702.695 261.177 711.46 237.51 717.724 216.613C728.907 179.175 733.785 139.927 732.272 100.905C731.282 75.3851 731.452 37.4664 716.875 15.0712C685.064 -33.805 582.038 50.1341 554.199 69.8853C524.778 90.7677 489.559 119.525 464.054 153.301C444.628 124.586 419.079 99.5475 393.15 80.7294C349.618 49.1444 276.89 22.7764 228.495 15.0993C121.482 -1.83846 172.648 182.935 184.001 224.361C193.686 259.636 206.722 295.632 227.279 326.327C133.528 352.101 53.165 413.984 2.43665 496.849C-0.518266 501.67 0.217262 508.287 5.16568 511.567C83.4497 563.469 181.061 604.866 276.608 603.608C296.203 603.353 315.785 600.61 334.405 594.898C344.259 659.638 382.928 718.368 425.103 767.711ZM263.572 339.065C304.177 323.81 370.726 344.494 366.697 369.604C362.498 395.873 287.819 372.601 263.572 339.065ZM549.803 497.782C539.284 480.435 534.477 453.84 564.733 460.528C587.312 465.519 604.603 512.217 608.859 532.251C596.177 527.303 583.621 521.591 572.127 514.423C563.969 509.871 556.547 504.314 549.803 497.782ZM475.336 792.34C456.306 778.23 439.509 753.05 424.791 734.557C408.391 713.958 393.235 692.368 381.09 668.941C367.941 643.591 358.157 615.837 354.382 587.391C362.682 583.602 370.67 579.106 378.248 573.762C401.902 557.078 430.744 525.507 426.799 493.922C423.872 470.58 400.926 458.45 378.771 464.331C345.843 473.069 336.045 513.434 332.977 542.587C331.86 553.162 331.62 563.61 332.157 573.945C326.756 575.769 321.27 577.367 315.742 578.611C219.743 600.073 25.6236 518.905 25.8498 499.691C26.0336 484.718 102.961 406.689 156.432 377.465C183.068 362.917 211.359 351.634 240.823 344.296C246.564 351.069 252.629 357.629 259.415 363.553C284.794 385.651 333.599 412.556 368.266 395.944C393.249 383.983 390.124 356.356 372.197 338.839C340.88 308.23 288.767 312.358 248.388 321.011C229.258 294.756 217.014 263.425 207.711 232.646C198.225 201.302 149.758 37.7206 222.147 33.3236C232.114 32.7157 281.174 41.3966 361.296 81.9595C399.385 101.23 429.853 135.006 451.272 171.837C436.314 196.551 427.449 223.47 430.008 251.719C434.688 303.267 495.158 318.65 497.886 259.311C499.258 229.507 490.761 200.552 476.552 173.972C485.615 160.201 496.261 147.406 507.388 135.926C545.844 96.2536 597.18 60.2996 646.523 35.402C668.027 24.5437 688.981 12.0457 704.646 42.5704C708.873 50.7989 709.113 65.6864 710.245 74.7773C712.789 95.6031 713.185 116.612 711.658 137.523C708.393 182.78 695.993 227.641 674.87 267.865C672.891 271.64 670.714 275.358 668.579 279.105C638.464 274.863 608.42 277.705 582.886 293.823C535.693 323.612 548.756 381.367 608.872 362.648C638.605 353.387 661.75 330.413 679.508 302.928C695.894 306.561 711.743 311.991 725.514 317.476C778.561 338.655 825.514 373.648 864.593 414.974C878.321 429.494 920.072 466.296 907.955 489.794C901.593 502.109 871.69 514.663 859.757 520.672C789.461 556.145 705.55 562.946 630.377 539.801C622.488 497.103 586.661 413.687 537.488 442.812C517.242 454.802 515.546 482.287 526.093 501.105C540.047 526.016 573.314 540.452 598.566 550.801C602.864 552.554 607.275 553.982 611.658 555.537C613.779 597.118 600.39 640.919 585.36 678.301C572.975 709.094 556.773 738.233 537.276 765.096C530.758 774.073 515.63 798.491 506.596 802.407C483.381 812.473 486.477 800.597 475.336 792.34ZM629.91 327.26C623.817 332.166 616.747 337.001 609.41 340.111C589.856 348.425 566.712 332.788 589.079 315.327C607.982 300.595 631.777 297.06 655.868 299.195C648.375 309.615 639.864 319.243 629.91 327.26ZM470.713 217.49C473.427 227.528 487.82 281.678 455.754 267.751C443.808 262.563 453.916 222.721 456.475 214.832C458.455 208.71 460.957 202.743 463.743 196.848C466.443 203.549 468.804 210.406 470.713 217.49ZM398.155 483.022C430.206 499.309 369.2 562.126 352.842 565.081C346.734 519.909 373.413 470.453 398.155 483.022Z" fill="#BD5449"/>
<path d="M484.32 432.766C515.198 418.84 532.263 379.154 510.264 350.057C498.84 334.943 476.827 324.877 457.966 327.393C457.599 327.323 457.26 327.167 456.85 327.181C422.635 328.298 401.526 363.149 411.395 394.96C421.787 428.468 450.431 448.064 484.32 432.766ZM428.53 381.458C425.9 365.468 434.087 354.086 445.85 346.565C462.462 339.142 485.353 349.35 493.609 365.453C503.803 385.346 489.537 406.2 470.196 412.746C449.144 419.858 431.824 401.634 428.53 381.458Z" fill="#BD5449"/>
<path d="M235.611 111.568C232.911 108.005 237.859 103.806 240.927 107.086C297.509 167.33 364.609 222.921 408.65 293.783C412.086 299.325 404.027 305.532 399.135 301.856C332.261 251.608 285.378 177.24 235.611 111.568Z" fill="#BD5449"/>
<path d="M124.95 473.451C201.735 466.113 274.491 426.484 351.446 423.119C360.353 422.737 361.88 436.183 354.5 439.505C318.249 455.835 275.353 461.01 236.614 469.068C199.374 476.816 163.335 480.733 125.487 482.868C120.143 483.15 119.591 473.96 124.95 473.451Z" fill="#BD5449"/>
<path d="M525.744 303.593C553.582 233.014 603.915 162.648 653.611 105.868C657.047 101.938 662.942 105.84 660.355 110.491C641.297 144.635 620.358 177.45 599.772 210.675C579.371 243.604 561.472 278.921 538.172 309.856C533.577 315.936 522.718 311.256 525.744 303.593Z" fill="#BD5449"/>
<path d="M571.096 396.556C613.851 396.33 660.366 410.765 701.339 422.132C743.98 433.966 784.317 449.9 822.49 472.295C826.025 474.373 823.028 479.972 819.267 478.643C778.379 464.25 736.826 451.639 694.849 440.865C653.579 430.262 607.644 425.907 568.467 409.224C561.595 406.283 563.631 396.584 571.096 396.556Z" fill="#BD5449"/>
<path d="M479.817 736.625C476.042 697.221 475.787 657.493 474.218 617.962C472.521 574.967 467.587 530.968 470.259 488.016C470.825 478.713 484.694 478.006 486.448 487.111C501.491 565.339 498.776 657.577 488.13 736.158C487.536 740.597 480.297 741.63 479.817 736.625Z" fill="#BD5449"/>
</svg>
