<svg width="86" height="86" viewBox="0 0 86 86" fill="none" xmlns="http://www.w3.org/2000/svg">
<path d="M57.3333 86L28.6667 75.9667L6.45 84.5667C4.85741 85.2037 3.38426 85.0253 2.03056 84.0316C0.676852 83.0378 0 81.7032 0 80.0278V13.1389C0 12.1037 0.299407 11.188 0.898222 10.3917C1.49704 9.59537 2.31244 8.99815 3.34444 8.6L28.6667 0L57.3333 10.0333L79.55 1.43333C81.1426 0.796296 82.6157 0.97626 83.9694 1.97322C85.3231 2.97019 86 4.30319 86 5.97222V72.8611C86 73.8963 85.7022 74.812 85.1066 75.6083C84.5109 76.4046 83.6939 77.0019 82.6556 77.4L57.3333 86ZM52.5556 74.2944V18.3944L33.4444 11.7056V67.6056L52.5556 74.2944Z" fill="#BD5449"/>
</svg>
