<svg width="127" height="63" viewBox="0 0 127 63" fill="none" xmlns="http://www.w3.org/2000/svg">
<path fill-rule="evenodd" clip-rule="evenodd" d="M81.5081 48.3806C80.2711 53.031 79.0282 57.7038 76.7725 61.9773C76.3927 62.6975 77.5196 63.2253 77.9046 62.5183C79.8097 59.0525 81.2125 55.3181 82.4036 51.4885C86.3585 47.3523 91.1317 44.9773 96.6995 43.5105C98.316 43.0852 99.9571 42.7239 101.599 42.362C105.887 41.4182 110.182 40.4724 114.067 38.3791C114.163 38.5154 114.268 38.6472 114.392 38.7722C115.867 40.2551 118.468 40.1374 119.854 38.5964C120.97 37.3542 121.068 35.1194 119.721 34.0832C118.733 32.9543 116.966 32.7014 115.582 33.4153C113.964 34.2492 113.075 36.2673 113.784 37.8762C110.318 39.0823 106.754 39.8552 103.19 40.6286C102.491 40.7805 101.791 40.9324 101.093 41.0871C103.713 39.5554 106.078 37.5744 107.841 35.1853C108.123 35.3962 108.438 35.5813 108.816 35.7004C110.722 36.3015 112.469 35.2463 112.762 33.2785C112.884 32.4631 112.91 31.4372 112.363 30.7673C111.805 30.0842 110.712 29.7483 109.863 29.8005C109.753 29.8064 109.681 29.8733 109.63 29.9543C108.801 29.9875 107.955 30.4553 107.392 31.1843C106.51 32.3293 106.55 33.6814 107.29 34.6443C104.207 37.5715 101.185 39.9875 97.5846 41.9211C96.3656 42.2312 95.1505 42.5593 93.9486 42.9465C89.9835 44.2195 85.8065 46.1604 83.0435 49.3723C83.7926 46.7864 84.4676 44.1711 85.1475 41.5725C85.2115 41.5613 85.2745 41.5383 85.3265 41.4782C86.1886 40.4748 87.003 39.4397 87.817 38.4045C89.0545 36.8308 90.2913 35.258 91.6934 33.8025C94.1646 31.2356 96.8475 28.8933 99.7244 26.7922C105.178 22.8113 111.308 19.7502 117.775 17.8152C117.82 18.1057 117.901 18.3874 118.026 18.6487C118.16 18.9275 118.345 19.1838 118.592 19.4035C120.076 20.7253 122.429 20.1335 123.515 18.6125C124.471 17.2761 124.387 14.6701 122.441 14.3274C121.512 13.6184 120.158 13.5622 119.144 14.3244C118.301 14.9573 117.769 16.1013 117.737 17.2112C111.875 18.7092 106.334 21.0534 101.27 24.3103C102.387 22.9021 103.379 21.3821 104.371 19.8611C105.595 17.9841 106.821 16.1052 108.286 14.4324C111.624 10.6223 115.577 7.4802 120.001 5.03831C120.242 5.38841 120.545 5.70921 120.94 5.97044C122.505 7.00755 124.584 6.83616 125.79 5.31028C126.769 4.07151 126.701 1.64329 125.219 0.79612C123.864 -0.279563 121.972 -0.2947 120.58 0.931374C119.416 1.9553 119.187 3.38548 119.738 4.57346C115.533 6.71214 111.677 9.43626 108.375 12.8235C105.467 15.8059 103.287 19.2873 101.099 22.781C100.495 23.7458 99.8905 24.7116 99.2696 25.6682C99.1834 25.7297 99.096 25.7893 99.0086 25.8489C98.9071 25.9177 98.8055 25.9865 98.7057 26.0593C93.8516 29.6013 88.7596 34.2644 85.6695 39.6013C86.1815 37.6745 86.7086 35.7644 87.2855 33.8933C90.3307 24.0115 95.8065 15.5212 104.555 9.82053C104.709 9.93821 104.877 10.0486 105.073 10.1384C106.74 10.9035 109.123 10.6013 109.929 8.79026C110.575 7.33811 110.396 4.50315 108.311 4.37913C108.272 4.37717 108.233 4.38108 108.196 4.39134C107.05 3.84055 105.746 3.92747 104.659 5.0803C103.625 6.17942 103.221 8.0012 104.002 9.22141C95.6156 14.1282 89.7945 21.6223 86.6676 30.8235C84.9676 35.8264 83.5277 40.9421 82.1366 46.0383C81.9242 46.8171 81.7161 47.5984 81.5081 48.3806ZM119.161 37.7912C118.299 38.8415 116.701 38.8884 115.651 38.0935C113.399 36.3845 116.348 33.3991 118.576 33.9934C118.542 34.1242 118.57 34.2761 118.687 34.4021C119.599 35.3874 120.122 36.6233 119.161 37.7912ZM111.789 32.1804C111.86 33.3933 111.421 34.6955 109.989 34.6633C108.672 34.6335 107.543 33.5544 108.124 32.2214C108.616 31.0935 110.062 30.1252 111.137 31.1643C111.192 31.2185 111.255 31.2224 111.316 31.2063C111.58 31.4372 111.763 31.7395 111.789 32.1804ZM122.84 17.8005C122.215 18.9314 120.488 19.4895 119.491 18.4763C117.89 16.8532 120.223 14.0383 121.961 14.8415C121.975 14.865 121.992 14.8879 122.013 14.9099C122.024 14.9221 122.038 14.9343 122.053 14.9455C123.012 15.6662 123.472 16.6535 122.84 17.8005ZM125.3 4.14817C124.751 5.49534 123.126 5.86448 121.938 5.16331C120.64 4.39622 120.275 3.00022 121.407 1.83909C122.269 0.954323 123.541 0.854226 124.618 1.29124L124.64 1.32639C125.208 2.20774 125.748 3.04612 125.3 4.14817ZM109.331 7.91038C108.99 9.57151 107.442 9.91624 106.031 9.23118C104.661 8.56712 104.782 6.99729 105.692 5.9553C106.594 4.92454 107.74 5.0471 108.741 5.64231C109.283 6.23655 109.534 6.9221 109.331 7.91038ZM44.0379 51.489C45.2281 55.3191 46.6319 59.053 48.536 62.5188C48.9239 63.2248 50.0511 62.697 49.672 61.9778C47.4168 57.7033 46.1734 53.0295 44.9361 48.3786C44.7281 47.5974 44.5203 46.8166 44.3079 46.0388C42.918 40.9431 41.4771 35.8269 39.7769 30.824C36.651 21.6218 30.8289 14.1282 22.4439 9.2219C23.2249 8.00218 22.8199 6.17991 21.786 5.08079C20.6991 3.92796 19.3961 3.84104 18.2491 4.39182C18.212 4.38206 18.1729 4.37815 18.1341 4.3801C16.0489 4.50413 15.87 7.33909 16.516 8.79075C17.3211 10.6018 19.7039 10.905 21.3709 10.1389C21.567 10.0491 21.7359 9.93919 21.89 9.82102C30.639 15.5222 36.1141 24.0119 39.159 33.8938C39.5367 35.1189 39.8929 36.3606 40.2379 37.6125C40.4198 38.2727 40.5987 38.9363 40.776 39.6018C37.6851 34.2649 32.5941 29.6018 27.7391 26.0598C27.5531 25.924 27.3609 25.802 27.1751 25.6692C26.5553 24.7141 25.9513 23.7497 25.3477 22.7864C23.1588 19.2907 20.9774 15.8078 18.0689 12.824C14.7669 9.43675 10.91 6.71311 6.70492 4.57395C7.25692 3.38596 7.02791 1.95481 5.8641 0.931862C4.47103 -0.294212 2.57894 -0.279075 1.22494 0.797097C-0.257975 1.64378 -0.32609 4.07298 0.652914 5.31077C1.85995 6.83714 3.93709 7.00803 5.50301 5.97092C5.89705 5.71018 6.20101 5.38889 6.44198 5.0388C10.8651 7.48216 14.8199 10.6228 18.1571 14.4328C19.6222 16.1052 20.847 17.9831 22.0709 19.8596C23.0633 21.3811 24.0553 22.9021 25.1739 24.3108C20.108 21.0539 14.567 18.7102 8.70614 17.2121C8.67513 16.1008 8.14193 14.9577 7.30013 14.3249C6.28499 13.5632 4.93099 13.6189 4.00106 14.3279C2.05697 14.6711 1.97201 17.2771 2.92806 18.613C4.014 20.133 6.36605 20.7258 7.85091 19.404C8.32796 18.9792 8.57406 18.4157 8.66707 17.8161C15.1351 19.7512 21.265 22.8122 26.7181 26.7932C29.5951 28.8938 32.2779 31.237 34.7491 33.803C36.1502 35.258 37.3868 36.8298 38.6241 38.4026C39.439 39.4387 40.2542 40.4748 41.117 41.4787C41.168 41.5388 41.232 41.5617 41.295 41.573L41.495 42.3376C42.108 44.6843 42.7235 47.0403 43.4 49.3728C40.637 46.1609 36.4591 44.219 32.494 42.947C31.2921 42.5608 30.077 42.2322 28.858 41.9221C25.2581 39.989 22.2359 37.573 19.1529 34.6448C19.8931 33.6819 19.9329 32.3298 19.0511 31.1848C18.4881 30.4558 17.6419 29.988 16.8121 29.9548C16.7611 29.8738 16.69 29.8078 16.5789 29.801C15.7281 29.7488 14.637 30.0852 14.0789 30.7678C13.5321 31.4377 13.5589 32.4651 13.68 33.279C13.972 35.2468 15.7181 36.302 17.6251 35.7009C18.004 35.5818 18.318 35.3972 18.5999 35.1858C20.3609 37.574 22.7271 39.5559 25.348 41.0881C24.6453 40.9324 23.942 40.7795 23.2386 40.6267C19.6783 39.8542 16.1182 39.0818 12.6571 37.8772C13.366 36.2678 12.4759 34.2497 10.859 33.4157C9.47494 32.7019 7.70614 32.9548 6.72005 34.0842C5.37313 35.1199 5.47103 37.3562 6.587 38.5969C7.97298 40.1379 10.5741 40.2561 12.0489 38.7732C12.1141 38.7073 12.1739 38.6399 12.2301 38.5705C12.2808 38.508 12.3285 38.4446 12.3741 38.3801C16.2581 40.4739 20.5533 41.4187 24.8399 42.362C26.483 42.7239 28.1248 43.0852 29.742 43.511C35.3111 44.9778 40.0821 47.3528 44.0379 51.489ZM7.75692 34.4031C7.8741 34.2771 7.90096 34.1252 7.86702 33.9939C10.0951 33.3991 13.045 36.384 10.7921 38.094C9.74398 38.8889 8.14608 38.842 7.28206 37.7922C6.3221 36.6238 6.84505 35.3869 7.75692 34.4031ZM15.307 31.1628C16.3819 30.1238 17.827 31.092 18.3189 32.2199C18.9 33.5539 17.7711 34.633 16.4539 34.6618C15.0221 34.695 14.5831 33.3928 14.6551 32.1789C14.682 31.737 14.8641 31.4348 15.127 31.2048C15.1881 31.2209 15.2511 31.217 15.307 31.1628ZM4.45711 14.8796C4.46712 14.8669 4.47591 14.8537 4.48397 14.8401C6.22005 14.0378 8.55306 16.8528 6.95296 18.4748C5.95614 19.488 4.22909 18.9299 3.60506 17.799C2.97103 16.6521 3.43294 15.6657 4.39095 14.9441C4.41781 14.9241 4.43929 14.9021 4.45711 14.8796ZM1.82601 1.28977C2.90194 0.853737 4.17513 0.952859 5.03597 1.83811C6.16805 2.99973 5.80306 4.39622 4.50692 5.16184C3.32015 5.86301 1.69393 5.49387 1.1451 4.14719C0.695638 3.04563 1.23421 2.20921 1.80184 1.32786L1.82601 1.28977ZM17.7039 5.64182C18.7049 5.04807 19.8509 4.92503 20.752 5.95481C21.6619 6.9968 21.7821 8.56712 20.4141 9.23118C19.002 9.91575 17.4549 9.57102 17.1141 7.90989C16.91 6.92112 17.161 6.23606 17.7039 5.64182Z" fill="#806753"/>
</svg>
