<svg width="154" height="108" viewBox="0 0 154 108" fill="none" xmlns="http://www.w3.org/2000/svg">
<path d="M151.119 0.0810547L153.082 8.32439C124.426 12.6423 102.837 29.5216 102.837 54.2516C102.837 56.9994 104.799 56.9994 106.37 55.4292C110.295 52.2889 117.753 50.3262 124.034 50.3262C138.165 50.3262 150.727 60.5323 150.727 78.5891C150.334 94.2907 136.203 107.637 120.108 107.637C95.3785 107.637 83.2097 88.7952 83.2097 64.0651C83.2097 22.4558 120.501 1.6512 151.119 0.0810547ZM68.2932 0.0810547L70.6484 8.32439C41.6004 12.6423 20.0107 29.5216 20.0107 54.2516C20.0107 56.9994 21.9734 56.9994 23.5435 55.4292C27.8615 52.2889 34.9272 50.3262 41.6004 50.3262C55.7319 50.3262 67.9006 60.5323 67.9006 78.5891C67.9006 94.2907 53.3766 107.637 37.2825 107.637C12.5524 107.637 0.383667 88.7952 0.383667 64.0651C0.383667 22.4558 37.675 1.6512 68.2932 0.0810547Z" fill="#F6F2E7"/>
</svg>
