<svg width="110" height="50" viewBox="0 0 110 50" fill="none" xmlns="http://www.w3.org/2000/svg">
<path fill-rule="evenodd" clip-rule="evenodd" d="M18.4714 16.3664C20.7948 16.6821 23.1371 16.773 25.4789 16.864C28.0385 16.9634 30.5977 17.0627 33.1313 17.4555C37.5956 18.1473 41.25 19.8561 44.371 22.8701C44.1914 22.8248 44.0081 22.7878 43.8212 22.7595C41.6297 22.4288 39.3643 23.4349 38.4266 25.4994C36.8442 28.9809 39.5534 31.277 42.6197 32.4177C39.3029 33.1419 36.5728 35.9034 38.2801 39.6521C39.2499 41.7808 41.4839 42.8929 43.7591 42.3215C44.3256 42.1792 44.9919 41.9406 45.6477 41.6203C45.1838 42.4101 44.8412 43.255 44.7177 44.1369C44.4002 46.4086 45.7747 47.8696 47.7722 48.7277C49.446 49.447 51.5739 49.4087 52.8612 47.961C53.5351 47.2033 53.9887 45.9983 54.2398 44.7523C55.0282 47.6016 57.3278 50.0994 60.5595 49.0968C63.9622 48.0412 64.1038 44.3385 62.8654 41.4857C63.8666 42.3864 65.0548 43.0715 66.2764 43.2069C68.2809 43.4294 70.3929 42.325 71.2378 40.4719C72.0331 38.7242 71.6487 36.5264 70.3517 35.1171C69.347 34.0252 67.976 33.5689 66.5437 33.4189C67.5539 33.1482 68.5112 32.6877 69.2835 32.0431C70.9098 30.686 71.6612 28.7765 70.9475 26.8885C69.513 23.0972 65.6129 23.6526 63.0084 25.454C63.2199 25.0857 63.4175 24.7049 63.5935 24.318C63.6328 24.3073 63.672 24.2829 63.7084 24.2413C63.7303 24.216 63.7533 24.1929 63.7763 24.1697C63.7964 24.1495 63.8165 24.1292 63.8361 24.1073C63.9972 24.1276 64.1877 24.0167 64.2017 23.8206C64.203 23.8024 64.2051 23.7843 64.2072 23.7661C64.2093 23.7475 64.2114 23.7288 64.2128 23.7097C67.5108 20.171 71.4116 18.2111 76.2746 17.4576C78.8082 17.0649 81.3674 16.9655 83.927 16.8661C86.2688 16.7752 88.6111 16.6842 90.9345 16.3685C99.5622 15.1957 107.421 9.4481 109.39 0.614587C109.522 0.0187559 108.715 -0.232413 108.466 0.273415C108.292 0.178529 108.075 0.182015 107.893 0.375276C104.431 4.0298 100.002 6.6343 95.0251 7.55944C93.333 7.87404 91.5208 7.91874 89.6952 7.96377C88.2576 7.99923 86.8117 8.03489 85.4095 8.20271C87.9261 6.85058 90.1091 4.88238 90.3408 1.95905C90.3771 1.50206 89.8112 1.42531 89.5705 1.71206C89.4875 1.7009 89.3982 1.71066 89.3047 1.76369C86.4218 3.39211 83.6883 4.68494 80.511 5.68124C77.4913 6.62802 74.4871 7.59781 71.7751 9.26879C68.2485 11.4415 64.9417 15.0208 63.8412 19.134C63.513 18.6348 63.0253 18.2027 62.3428 17.8673C58.7832 16.1182 56.2129 18.5615 55.2319 21.6132C55.1343 20.4955 54.8496 19.4211 54.1359 18.5008C52.9016 16.9087 50.8009 16.6987 48.9576 17.2366C47.3417 17.7075 46.3489 18.9592 46.127 20.619C45.9512 21.9335 46.2994 23.0895 46.8478 24.1793C46.5416 23.9155 46.2129 23.6798 45.8631 23.4781L45.8475 23.4487C46.6722 17.5971 42.3472 12.1732 37.6301 9.26665C34.9181 7.59567 31.9139 6.62658 28.8936 5.67911C25.7156 4.6821 22.982 3.38997 20.0998 1.76155C20.0063 1.70853 19.917 1.69946 19.8347 1.70992C19.5933 1.42317 19.0289 1.49992 19.0644 1.95691C19.2954 4.87955 21.4798 6.84775 23.9957 8.20058C22.5933 8.03276 21.1473 7.99709 19.7098 7.96163C17.8842 7.9166 16.0722 7.87191 14.3801 7.5573C9.40276 6.63216 4.97449 4.02766 1.51184 0.373141C1.32904 0.17988 1.11206 0.176394 0.939031 0.271281C0.689954 -0.234548 -0.117974 0.0173187 0.0145882 0.612452C1.98348 9.44666 9.84301 15.1943 18.4714 16.3664ZM1.53626 1.93598C4.60681 5.08118 8.53483 7.33334 12.8124 8.38337C15.255 8.98339 17.7458 9.10199 20.2505 9.14455C22.742 9.18642 25.1295 9.42782 27.5819 9.73062L27.6406 9.75069C27.7886 9.80129 27.9366 9.85193 28.0814 9.89876C28.1924 9.93504 28.2852 9.89458 28.3473 9.82341H28.348C28.5545 9.84992 28.7066 9.57015 28.4917 9.45991C28.3742 9.39935 28.2544 9.34647 28.1346 9.29358C28.0929 9.27518 28.0512 9.25677 28.0096 9.23805C27.802 9.13316 27.5936 9.02878 27.3848 8.92425C26.0661 8.2639 24.735 7.59732 23.5297 6.75705C22.181 5.81725 21.2685 4.70931 20.5756 3.36207C22.2313 4.65699 24.362 5.43561 26.2953 6.10191C27.1704 6.40339 28.0547 6.67991 28.939 6.95644L28.9391 6.95646C30.8482 7.55345 32.7575 8.15047 34.5742 8.99874C37.4257 10.3313 40.0957 12.2018 42.0263 14.717C43.7454 16.9566 44.6224 19.4544 45.0159 22.1517C43.0072 19.5353 39.666 17.9181 36.5912 17.055C33.0558 16.0627 29.3735 15.92 25.7151 15.7782H25.7151C24.7666 15.7415 23.8197 15.7048 22.8773 15.6533C17.9956 15.3868 13.1033 14.6361 8.9981 11.7916C5.43706 9.32595 3.05026 5.88144 1.53626 1.93598ZM69.7482 26.802C71.6913 31.1591 66.8192 32.7387 63.2568 32.9515C63.2017 32.0633 63.0161 31.1821 62.7133 30.3414C63.1301 30.2134 63.5267 30.0125 63.9205 29.8131C64.0396 29.7528 64.1585 29.6926 64.2775 29.6346C64.3945 29.5777 64.5124 29.5212 64.6308 29.4645L64.6313 29.4642C65.3314 29.1287 66.0464 28.786 66.6574 28.3153C66.9176 28.1143 66.7746 27.7125 66.4306 27.7774C65.6752 27.9194 64.9468 28.2252 64.2337 28.5246C64.113 28.5753 63.9928 28.6258 63.8729 28.6753C63.7373 28.7313 63.5987 28.7852 63.4593 28.8394L63.4592 28.8394C63.0619 28.9939 62.6574 29.1512 62.2954 29.3681C62.0261 28.8246 61.7079 28.3034 61.3326 27.8227C61.4324 27.7083 61.5328 27.5862 61.6333 27.4613C63.9559 25.7917 68.1721 23.2668 69.7482 26.802ZM55.1998 24.7947C55.3462 24.3427 55.464 23.8778 55.582 23.4124L55.582 23.4123L55.582 23.4123C55.834 22.4179 56.0867 21.4206 56.6204 20.5395C57.7534 18.6683 60.0928 17.7222 62.0533 18.9983C64.8218 20.8004 62.4782 24.8896 60.893 27.2994C60.8881 27.2939 60.8833 27.2876 60.8791 27.282C60.2805 26.631 59.5946 26.1189 58.8586 25.7282C59.0242 25.2998 59.1116 24.8257 59.1969 24.3635L59.1969 24.3635L59.1969 24.3634L59.1969 24.3633L59.1969 24.3632L59.1969 24.3631C59.2377 24.1421 59.278 23.9239 59.326 23.7147C59.3729 23.5104 59.4229 23.306 59.473 23.1014L59.4731 23.101C59.623 22.489 59.7735 21.8746 59.8409 21.2504C59.8583 21.0844 59.5967 21.0195 59.5263 21.1646C59.2523 21.7271 59.0541 22.3266 58.8569 22.9232C58.79 23.1258 58.7231 23.328 58.6534 23.5284C58.5809 23.7365 58.4958 23.9478 58.4097 24.1616L58.4097 24.1616C58.2537 24.5487 58.0946 24.9438 58.0011 25.3424C57.1066 24.9998 56.1585 24.8156 55.2006 24.7954L55.1998 24.7947ZM49.4788 18.2343C53.7346 17.1275 54.1951 21.1523 54.5522 24.2733L54.5524 24.2749L54.5527 24.2772C54.5732 24.4561 54.5933 24.632 54.6138 24.8038C54.2035 24.8226 53.7933 24.861 53.3872 24.9363C52.9944 24.9426 52.6058 24.9908 52.2235 25.0724C52.0409 23.8868 51.4821 22.8872 50.9029 21.851C50.7895 21.6481 50.6753 21.4438 50.563 21.2365C50.4918 21.106 50.3174 21.2016 50.339 21.3307C50.3787 21.5732 50.4144 21.8146 50.4499 22.0544C50.6191 23.1983 50.7831 24.306 51.3437 25.3298C50.4813 25.6424 49.6678 26.121 48.9464 26.7231C48.8839 26.5843 48.8169 26.4376 48.7468 26.2843C47.5707 23.7108 45.5365 19.2595 49.4788 18.2343ZM39.0985 26.5787C39.5952 24.277 42.1299 23.3219 44.2377 23.8291C46.0035 24.2533 47.2999 25.5182 48.3464 26.9297C48.4155 27.0225 48.5104 27.0455 48.5934 27.0252L48.5965 27.0287L48.5997 27.0322C47.9613 27.6239 47.422 28.3132 46.9845 29.0451C46.4684 28.7235 45.9054 28.4554 45.3519 28.1918L45.3517 28.1917L45.3506 28.1911C45.1503 28.0957 44.9512 28.0009 44.7561 27.9043C43.953 27.5074 43.1521 27.1418 42.31 26.8376C42.1781 26.7901 42.0769 26.9785 42.1746 27.0699C43.3844 28.2057 44.8956 29.4323 46.4222 30.1767C46.4008 30.2295 46.3779 30.2819 46.355 30.3344C46.3128 30.4313 46.2705 30.5281 46.238 30.6267C46.0461 31.2058 45.9282 31.7786 45.8668 32.3438C42.8632 31.653 38.2473 30.5235 39.0985 26.5787ZM43.496 41.3691C41.2585 41.9287 39.2903 40.4524 38.8291 38.2693C38.0094 34.3873 41.7971 33.3212 44.9144 33.0547C45.2249 33.1133 45.5298 33.1608 45.8228 33.195C45.8242 34.0029 45.9582 34.7836 46.1961 35.5308C45.7092 35.6373 45.251 35.8981 44.8068 36.151C44.6514 36.2394 44.4977 36.3269 44.3451 36.4064C43.8285 36.6756 43.3336 36.9771 42.8383 37.2788L42.8382 37.2789L42.8381 37.2789C42.5221 37.4715 42.2059 37.6641 41.8837 37.8486C41.705 37.9504 41.832 38.1946 42.0155 38.1625C42.9595 37.9979 43.8742 37.8269 44.7582 37.4488C44.8198 37.4224 44.8825 37.3959 44.9459 37.369L44.9462 37.3689C45.5038 37.133 46.1154 36.8743 46.5582 36.4616C46.8973 37.1997 47.3389 37.8953 47.8776 38.5288C47.1715 39.8928 44.8586 41.028 43.496 41.3691ZM52.6728 46.5788C51.5558 48.7033 48.9576 48.3656 47.2357 47.2779C44.3151 45.4339 45.9987 42.5775 47.5817 40.31C47.9466 39.9542 48.2452 39.5614 48.4301 39.1309C48.9834 39.6821 49.6106 40.1768 50.2944 40.6066C50.2104 40.8584 50.1341 41.1127 50.0578 41.367L50.0578 41.3671L50.0578 41.3672L50.0577 41.3673L50.0577 41.3674L50.0577 41.3675L50.0576 41.3676L50.0576 41.3677L50.0576 41.3678L50.0575 41.3679L50.0575 41.368L50.0575 41.3681L50.0574 41.3683L50.0574 41.3684L50.0574 41.3684L50.0574 41.3684L50.0574 41.3685L50.0574 41.3685L50.0573 41.3686L50.0573 41.3686L50.0573 41.3687L50.0573 41.3687L50.0573 41.3688L50.0573 41.3688L50.0573 41.3689L50.0573 41.3689L50.0572 41.3689C49.9625 41.6847 49.8678 42.0003 49.7585 42.311C49.6408 42.6464 49.4973 42.9717 49.3538 43.2971L49.3537 43.2972L49.3537 43.2973C49.2207 43.5987 49.0877 43.9002 48.975 44.2101C48.8885 44.4488 49.2408 44.5723 49.3685 44.3762C49.5507 44.0962 49.7141 43.8051 49.8774 43.5141L49.8775 43.5139C50.0751 43.1619 50.2726 42.81 50.503 42.4785L50.5873 42.3576C50.8608 41.9658 51.1236 41.5893 51.3381 41.171C52.1509 41.5415 53.0293 41.7612 53.9321 41.8338C53.7165 43.4225 53.4235 45.1499 52.6728 46.5788ZM50.7144 39.5133C48.6625 38.1332 47.0871 36.2495 46.9224 33.684C46.9071 33.4419 46.9091 33.2005 46.9175 32.9584C46.9266 32.9096 46.9301 32.8594 46.9224 32.8105C46.9754 31.8854 47.2057 30.9742 47.5859 30.1307C47.5971 30.1122 47.6046 30.0923 47.6121 30.0722L47.6121 30.0721C47.6154 30.0635 47.6186 30.0549 47.6222 30.0463C48.0185 29.1923 48.5711 28.4109 49.2569 27.7613C49.3063 27.7145 49.3576 27.6733 49.409 27.6321C49.4403 27.607 49.4716 27.5819 49.5025 27.5555C53.0237 25.3996 57.505 24.9845 60.2749 28.3097C60.2812 28.4067 60.3495 28.4897 60.4416 28.5281C60.5784 28.7046 60.7158 28.8825 60.8435 29.0793C63.3245 32.9047 62.1614 38.6767 57.5476 40.2054C55.2557 40.9638 52.7419 40.8766 50.7144 39.5133ZM59.8898 48.1361C56.2401 48.8387 54.9717 44.9637 54.454 42.1485C54.4524 42.1129 54.4516 42.0762 54.4508 42.0396C54.4496 41.98 54.4483 41.9205 54.4436 41.8652C55.4022 41.8854 56.3699 41.7396 57.295 41.4605C57.3667 41.8956 57.5441 42.3192 57.7146 42.7265L57.7147 42.7268L57.7568 42.8275L57.7799 42.8831L57.8288 43.001L57.8737 43.1097L57.8737 43.1097C58.1312 43.7328 58.3908 44.3611 58.7393 44.9378C58.8655 45.1472 59.1376 44.9972 59.1076 44.7823C59.0518 44.389 58.9722 43.9999 58.8925 43.6107C58.8267 43.2895 58.7609 42.9682 58.7086 42.6445C58.69 42.5299 58.6731 42.414 58.6561 42.2978L58.6561 42.2975L58.656 42.2971L58.656 42.2971C58.5946 41.8764 58.5324 41.4502 58.3876 41.0552C59.28 40.6603 60.1074 40.1349 60.803 39.4812C60.804 39.4828 60.8045 39.4845 60.8049 39.4863L60.8055 39.4888L60.8062 39.4921L60.8068 39.4942L60.8079 39.4965C60.9398 39.7454 61.0773 39.9928 61.2149 40.2406C61.8803 41.4382 62.5499 42.6434 62.6163 44.0546C62.7001 45.8386 61.7707 47.7747 59.8898 48.1361ZM70.2707 40.1775C68.0911 44.1948 63.4982 41.4536 61.297 38.9642L61.3471 38.9099C61.4506 38.7979 61.5538 38.6864 61.6445 38.5651C61.9403 38.1737 62.188 37.7579 62.4008 37.3288C63.1796 37.6009 63.9892 37.8025 64.7966 38.0034L64.7966 38.0035L64.7967 38.0035L64.7968 38.0035L64.7968 38.0035L64.7969 38.0036L64.797 38.0036L64.797 38.0036L64.7971 38.0036L64.7972 38.0036L64.7972 38.0037L64.7973 38.0037L64.7974 38.0037L64.7975 38.0037C65.2359 38.1129 65.6737 38.2218 66.1055 38.3418C66.3357 38.406 66.5053 38.0439 66.2737 37.9435C65.6855 37.6882 65.1124 37.4052 64.5401 37.1226L64.54 37.1226C63.9718 36.842 63.4044 36.5618 62.8236 36.3095C63.0685 35.5762 63.2122 34.8129 63.2554 34.0413C63.3078 34.0873 63.3775 34.1187 63.4724 34.1152C63.5677 34.1114 63.6636 34.1075 63.7599 34.1035L63.7603 34.1035C65.428 34.0344 67.2338 33.9596 68.7191 34.815C70.5345 35.8622 71.2866 38.3056 70.2707 40.1775ZM51.9285 27.2097C51.5779 27.5375 51.2527 27.8896 50.9518 28.2617C50.7237 28.2164 50.4932 28.1793 50.2599 28.1512C50.128 28.1359 50.1189 28.3319 50.2305 28.371C50.3973 28.4295 50.5625 28.4893 50.7261 28.5505C50.3629 29.0312 50.0378 29.5418 49.7483 30.0735C49.495 29.9269 49.24 29.7833 48.9829 29.6434C48.8797 29.5869 48.7499 29.7348 48.8511 29.8151C49.0939 30.0061 49.3396 30.1934 49.5878 30.3775C49.3507 30.8409 49.1396 31.3185 48.9531 31.805C48.8364 31.6982 48.7195 31.591 48.6024 31.4835C48.4768 31.3683 48.2438 31.5225 48.354 31.6746C48.4925 31.8667 48.6389 32.0563 48.7927 32.243C48.5278 32.9999 48.3204 33.7738 48.1651 34.5445C48.1344 34.6945 48.3611 34.7601 48.396 34.6087C48.5646 33.8821 48.7834 33.1964 49.0459 32.5406C49.4914 33.0478 49.9897 33.533 50.5263 33.9921C50.2705 34.5496 50.048 35.1201 49.875 35.7068C49.5822 35.4436 49.2955 35.1637 49.0147 34.8645C48.9114 34.7543 48.7063 34.9043 48.8005 35.0299C49.0921 35.4177 49.4105 35.7965 49.7526 36.159C49.6619 36.5268 49.5917 36.9012 49.5459 37.2829C49.5305 37.4148 49.7266 37.4239 49.765 37.3122C49.8632 37.032 49.9654 36.7565 50.0713 36.4851C50.519 36.9275 51.0025 37.3407 51.5158 37.7103C51.3523 37.9913 51.1924 38.2743 51.0371 38.5598C50.9806 38.6631 51.1285 38.7929 51.2081 38.6917C51.4105 38.4344 51.6087 38.1739 51.8034 37.9107C52.227 38.1961 52.6693 38.4513 53.127 38.6687L52.8791 38.939C52.764 39.0639 52.9182 39.2969 53.0703 39.1867C53.2218 39.0775 53.3718 38.9633 53.52 38.8444C54.1127 39.0929 54.7288 39.2768 55.3616 39.3807C55.5144 39.4051 55.6455 39.1826 55.4774 39.1065C54.9792 38.8806 54.4941 38.6538 54.0217 38.4191C54.4923 37.9983 54.9435 37.5323 55.3721 37.0328C55.9377 37.2898 56.5033 37.5177 57.0588 37.7136C56.8076 37.9904 56.5415 38.2617 56.2579 38.5277C56.1484 38.631 56.2977 38.8361 56.4233 38.7419C56.7856 38.4694 57.1401 38.1736 57.4808 37.8569C57.5636 37.8839 57.646 37.9102 57.7282 37.9357C57.9103 37.9923 58.0191 37.7257 57.8566 37.6315L57.7688 37.5809C58.1553 37.199 58.5209 36.79 58.8562 36.3578C59.2318 36.5429 59.6125 36.71 59.9988 36.8527C60.1042 36.8911 60.1963 36.7334 60.1105 36.6608C59.8085 36.4076 59.4924 36.1681 59.1665 35.9388C59.5578 35.3844 59.898 34.7962 60.1694 34.1817L60.3785 34.3412C60.5369 34.4626 60.6834 34.2163 60.5767 34.0844C60.4966 33.9859 60.4144 33.8889 60.3302 33.7934C60.5322 33.2716 60.6836 32.7326 60.7741 32.1808C60.7999 32.028 60.5773 31.8968 60.5006 32.065C60.3036 32.4993 60.1061 32.9236 59.9032 33.3382C59.4586 32.8917 58.972 32.4795 58.4624 32.0938C58.762 31.4277 59.021 30.7623 59.2348 30.114C59.521 30.3282 59.8061 30.5495 60.0915 30.7772C60.261 30.9118 60.4891 30.699 60.3342 30.5337C59.6011 29.7493 58.746 29.0921 57.8181 28.5494C57.9768 28.2184 58.121 27.8833 58.2464 27.5439C58.2855 27.4386 58.1271 27.3465 58.0552 27.4323C57.8201 27.7125 57.597 28.0048 57.3827 28.3059C56.7781 27.9826 56.1469 27.7049 55.502 27.4696C55.5793 27.3678 55.6571 27.2658 55.7351 27.1636C55.8565 27.0059 55.6109 26.8594 55.4784 26.9661C55.3389 27.0795 55.2025 27.1971 55.0692 27.3186C54.3865 27.0913 53.6917 26.9098 52.9994 26.7703C52.8494 26.7403 52.7845 26.9664 52.9359 27.0019C53.5877 27.1534 54.2066 27.3451 54.8005 27.5724C54.3228 28.0399 53.8841 28.556 53.4752 29.0977C52.8225 28.8022 52.1517 28.5532 51.4578 28.3765C51.6874 28.0679 51.9253 27.7607 52.1706 27.4532C52.3059 27.2829 52.0938 27.0548 51.9285 27.2097ZM53.5655 38.1878C53.9901 37.719 54.4063 37.2489 54.8071 36.7664C54.2672 36.5024 53.7302 36.2127 53.2049 35.8997C52.868 36.4071 52.5248 36.9101 52.171 37.405C52.6229 37.6818 53.0876 37.9402 53.5655 38.1878ZM51.8253 37.1879C52.1378 36.6688 52.461 36.1557 52.7889 35.6454C52.168 35.2559 51.5673 34.8341 51.0017 34.3841C50.7362 34.919 50.4859 35.4676 50.2522 36.0343C50.7585 36.4585 51.2825 36.8384 51.8253 37.1879ZM49.9594 30.6496C49.6984 31.1106 49.4589 31.5825 49.2438 32.0702C49.7562 32.5359 50.2692 32.9921 50.7972 33.4299C51.0643 32.8996 51.3574 32.3804 51.662 31.8695L51.6814 31.837C51.0999 31.4515 50.5241 31.0579 49.9594 30.6496ZM53.1234 35.1233C52.476 34.7234 51.8698 34.2873 51.2865 33.8263C51.5798 33.2675 51.8896 32.7228 52.2143 32.1873C52.7115 32.5116 53.2115 32.8314 53.7109 33.1509C53.8755 33.2561 54.04 33.3613 54.2042 33.4666C53.9944 33.7916 53.7828 34.1158 53.5712 34.4401L53.5711 34.4402C53.4224 34.6682 53.2736 34.8962 53.1254 35.1246L53.1234 35.1233ZM55.2165 36.2618C54.6539 35.9806 54.0943 35.6931 53.5486 35.3774C53.8883 34.8573 54.223 34.3339 54.5572 33.8112L54.5573 33.8111L54.5573 33.8111L54.5574 33.811L54.6099 33.7288C54.9068 33.9227 55.2053 34.122 55.5059 34.3228L55.5073 34.3237C55.7567 34.4903 56.0075 34.6578 56.2601 34.824C55.9315 35.3237 55.5818 35.7999 55.2165 36.2618ZM57.3706 37.3582C56.8469 37.0724 56.313 36.8062 55.7784 36.541C56.1294 36.0999 56.4633 35.6374 56.7781 35.1607C57.2891 35.4879 57.8076 35.8035 58.3357 36.0887C58.0388 36.524 57.7197 36.947 57.3706 37.3582ZM58.66 35.5948C59.0241 35.0191 59.3556 34.4225 59.6708 33.8038C59.1706 33.4267 58.6744 33.0589 58.1777 32.7019C57.858 33.3585 57.5001 34.0109 57.1086 34.6435C57.6335 34.9505 58.1554 35.2633 58.66 35.5948ZM56.572 34.3315C56.9678 33.6817 57.3159 33.0081 57.6548 32.3303C57.1669 31.9878 56.6772 31.6562 56.1817 31.337C56.0268 31.5718 55.8708 31.8052 55.7158 32.0373L55.715 32.0385L55.7149 32.0387C55.4457 32.4416 55.179 32.8408 54.9247 33.2371L54.872 33.3192C55.4155 33.6609 55.9799 33.9882 56.5471 34.317L56.5472 34.3171L56.572 34.3315ZM54.4651 33.0608C54.5384 32.9462 54.6114 32.8315 54.684 32.7166C55.0298 32.1692 55.3605 31.5998 55.6925 31.0272C55.0498 30.6273 54.3951 30.2486 53.7199 29.894C53.2857 30.5129 52.869 31.1347 52.4729 31.7677C52.6788 31.9015 52.8844 32.0356 53.09 32.1697L53.0935 32.172L53.094 32.1723C53.5505 32.4701 54.0067 32.7677 54.4651 33.0608ZM51.9329 31.4185C52.3045 30.8051 52.6956 30.1852 53.118 29.5873C52.4986 29.2812 51.8605 28.9954 51.1974 28.7322C50.8241 29.2507 50.4752 29.7748 50.1552 30.3124C50.7546 30.669 51.3455 31.0408 51.9329 31.4185ZM55.6733 30.268C55.1519 29.9572 54.6219 29.6583 54.0802 29.3866C54.4673 28.8474 54.8673 28.3087 55.2781 27.7651C55.9144 28.0349 56.5233 28.3461 57.1153 28.6925C56.7282 29.2677 56.3678 29.8685 56.0148 30.4726C55.9006 30.4038 55.7867 30.3356 55.6733 30.268ZM57.9562 31.724C57.492 31.3961 57.0145 31.087 56.5371 30.7914C56.9161 30.2006 57.2799 29.5998 57.5996 28.9859C58.0453 29.2649 58.4827 29.5635 58.9165 29.8791C58.5748 30.4828 58.2645 31.1028 57.9562 31.724ZM25.6186 12.0871C19.6368 11.7382 13.7178 11.3929 8.17022 8.78569C7.96021 8.68662 7.79625 8.97896 7.99509 9.10315C13.0317 12.2323 19.1833 12.6719 24.956 13.0277C25.2568 13.0462 25.5601 13.0644 25.8654 13.0826C32.411 13.4741 39.8883 13.9213 43.9912 19.7974C44.0966 19.9481 44.3268 19.8135 44.2382 19.6502C42.84 17.0806 40.7316 15.4166 38.2925 14.3233C35.6852 11.3686 31.7495 8.64755 27.9833 7.48101C27.7405 7.40566 27.6143 7.76427 27.8243 7.88357C28.4643 8.24624 29.1138 8.58573 29.7627 8.92492C30.8541 9.49536 31.944 10.065 32.9844 10.7427C34.4258 11.6818 35.7468 12.7551 37.0732 13.8329L37.0732 13.8329L37.0733 13.8329L37.0792 13.8377C34.2779 12.8246 31.1488 12.4395 28.1961 12.2442C27.3363 12.1873 26.4769 12.1371 25.6188 12.0871L25.6186 12.0871ZM100.408 11.7937C96.3026 14.6382 91.4103 15.389 86.5286 15.6555C85.5863 15.7069 84.6394 15.7436 83.691 15.7804C80.0327 15.9221 76.3507 16.0648 72.8147 17.0571C69.74 17.9202 66.3987 19.5375 64.3901 22.1538C64.7829 19.4558 65.6599 16.9588 67.379 14.7192C69.3102 12.2047 71.9796 10.3335 74.8317 9.00087C76.6487 8.15249 78.5579 7.55542 80.4671 6.95835L80.4672 6.95831C81.3511 6.68187 82.2351 6.40543 83.1099 6.10404C85.0432 5.43775 87.1747 4.65912 88.8296 3.3642C88.1368 4.71215 87.2242 5.81939 85.8762 6.75918C84.6705 7.59932 83.3395 8.26583 82.021 8.92609C81.8121 9.03072 81.6034 9.1352 81.3957 9.24018C81.3566 9.2577 81.3174 9.27494 81.2784 9.29216L81.2772 9.29266C81.1548 9.34657 81.0328 9.40032 80.9135 9.46205C80.6986 9.57228 80.8501 9.85206 81.0566 9.82555C81.1187 9.89671 81.2129 9.93718 81.3238 9.9009C81.4742 9.85184 81.6299 9.79861 81.785 9.74562L81.8226 9.73275C84.2757 9.42996 86.6632 9.18855 89.1547 9.14669C91.6594 9.10413 94.1502 8.98552 96.5928 8.38551C100.87 7.33548 104.798 5.08332 107.869 1.93811C106.354 5.88287 103.967 9.3274 100.408 11.7937ZM83.7854 12.089C89.7673 11.7401 95.6867 11.3948 101.234 8.78765C101.444 8.68857 101.608 8.98091 101.409 9.1051C96.3721 12.2343 90.2198 12.6738 84.4471 13.0296C84.1462 13.0482 83.8429 13.0663 83.5376 13.0846C76.9925 13.4761 69.5148 13.9233 65.4119 19.7994C65.3073 19.9501 65.0763 19.8154 65.1656 19.6521C66.5631 17.0825 68.6722 15.4185 71.1114 14.3252C73.718 11.3705 77.6536 8.64951 81.4198 7.48296C81.6633 7.40761 81.7896 7.76622 81.5796 7.88553C80.9396 8.24819 80.2901 8.58767 79.6411 8.92686C78.5497 9.49731 77.4599 10.0669 76.4194 10.7447C74.9766 11.6852 73.6531 12.7603 72.3246 13.8397C75.1259 12.8266 78.2551 12.4415 81.2077 12.2461C82.0676 12.1892 82.9271 12.1391 83.7854 12.089Z" fill="#806753"/>
</svg>
