<svg width="200" height="195" viewBox="0 0 200 195" fill="none" xmlns="http://www.w3.org/2000/svg">
<path fill-rule="evenodd" clip-rule="evenodd" d="M0 4.33332C0 1.94009 1.93785 0 4.32831 0C56.7018 0 105.493 16.9691 137.088 49.6661C167.119 80.7438 181.12 125.524 168.479 181.882L193.527 167.581C195.603 166.395 198.247 167.12 199.431 169.198C200.615 171.277 199.892 173.924 197.815 175.109L163.977 194.43C161.9 195.616 159.257 194.892 158.073 192.813L138.774 158.935C137.59 156.856 138.313 154.21 140.39 153.024C142.466 151.838 145.11 152.563 146.294 154.641L160.229 179.104C171.97 125.682 158.478 84.2658 130.867 55.6921C101.308 25.1032 55.013 8.66663 4.32831 8.66663C1.93785 8.66663 0 6.72654 0 4.33332Z" fill="#BD5449"/>
</svg>
