<svg width="42" height="42" viewBox="0 0 42 42" fill="none" xmlns="http://www.w3.org/2000/svg">
<circle opacity="0.2" cx="20.9819" cy="20.9702" r="19.6606" stroke="#F6F2E7" stroke-width="2"/>
<path d="M14.2963 26.8096C13.963 26.6263 13.7046 26.3806 13.5213 26.0726C13.338 25.7646 13.2463 25.4186 13.2463 25.0346V20.2346L10.8463 18.9096C10.663 18.8096 10.5296 18.6846 10.4463 18.5346C10.363 18.3846 10.3213 18.2179 10.3213 18.0346C10.3213 17.8513 10.363 17.6846 10.4463 17.5346C10.5296 17.3846 10.663 17.2596 10.8463 17.1596L19.2963 12.5596C19.4463 12.4763 19.6006 12.4136 19.7593 12.3716C19.918 12.3296 20.0803 12.3089 20.2463 12.3096C20.4123 12.3103 20.575 12.3313 20.7343 12.3726C20.8936 12.4139 21.0476 12.4763 21.1963 12.5596L30.7213 17.7596C30.888 17.8429 31.0173 17.9639 31.1093 18.1226C31.2013 18.2813 31.247 18.4519 31.2463 18.6346V25.0346C31.2463 25.3179 31.1503 25.5556 30.9583 25.7476C30.7663 25.9396 30.529 26.0353 30.2463 26.0346C29.9636 26.0339 29.7263 25.9379 29.5343 25.7466C29.3423 25.5553 29.2463 25.3179 29.2463 25.0346V19.1346L27.2463 20.2346V25.0346C27.2463 25.4179 27.1546 25.7639 26.9713 26.0726C26.788 26.3813 26.5296 26.6269 26.1963 26.8096L21.1963 29.5096C21.0463 29.5929 20.8923 29.6556 20.7343 29.6976C20.5763 29.7396 20.4136 29.7603 20.2463 29.7596C20.079 29.7589 19.9163 29.7383 19.7583 29.6976C19.6003 29.6569 19.4463 29.5943 19.2963 29.5096L14.2963 26.8096ZM20.2463 21.7346L27.0963 18.0346L20.2463 14.3346L13.3963 18.0346L20.2463 21.7346ZM20.2463 27.7596L25.2463 25.0596V21.2846L21.2213 23.5096C21.0713 23.5929 20.913 23.6556 20.7463 23.6976C20.5796 23.7396 20.413 23.7603 20.2463 23.7596C20.0796 23.7589 19.913 23.7383 19.7463 23.6976C19.5796 23.6569 19.4213 23.5943 19.2713 23.5096L15.2463 21.2846V25.0596L20.2463 27.7596Z" fill="#F6F2E7"/>
</svg>
