<svg width="42" height="42" viewBox="0 0 42 42" fill="none" xmlns="http://www.w3.org/2000/svg">
<circle opacity="0.2" cx="20.6606" cy="20.9702" r="19.6606" stroke="#F6F2E7" stroke-width="2"/>
<path fill-rule="evenodd" clip-rule="evenodd" d="M16.9968 17.5145C16.8144 17.5253 16.7124 17.5518 16.674 17.5686C16.2935 17.7426 15.0445 18.1957 14.2013 18.4976V22.7587C14.6334 22.7389 15.1195 22.7221 15.3926 22.7329C16.6061 22.7815 17.5226 23.0642 18.379 23.3361L18.4546 23.3601C19.2817 23.623 20.0535 23.8684 21.0683 23.9453C21.3798 23.9693 21.6517 23.9963 21.9062 24.0221C22.2085 24.0556 22.5117 24.0814 22.8154 24.0995C23.3315 24.1259 23.7276 24.0977 24.0481 23.9801C24.4442 23.8348 25.8726 23.1669 27.307 22.4389C27.9692 22.1054 28.6239 21.7575 29.2707 21.3952C29.5077 21.2626 29.7408 21.1233 29.9699 20.9775C30.1662 20.8496 30.261 20.7734 30.2868 20.747C30.3936 20.6372 30.4698 20.3341 30.33 20.061C30.2328 19.8708 29.9615 19.5923 29.1993 19.7183C28.3171 19.8642 27.268 20.2945 26.2375 20.717C25.7376 20.9223 25.24 21.1257 24.8001 21.2727C24.3776 21.4138 23.9239 21.5332 23.535 21.5098C22.9708 21.4756 21.977 21.3268 21.1524 21.1923C20.6792 21.1151 20.2067 21.0343 19.7348 20.9499L19.6429 20.9337L19.6111 20.9277L19.7258 19.7369L22.9426 19.7759L22.9558 19.7747C22.9774 19.7729 23.0207 19.7675 23.0831 19.7513C23.2055 19.7195 23.4072 19.6451 23.6568 19.4663C23.7432 19.4044 23.8489 19.297 23.9443 19.1578C24.0223 19.0437 24.0805 18.9291 24.1147 18.8319C23.6767 18.8146 23.2412 18.7573 22.8136 18.6608C22.6074 18.6156 22.4028 18.5632 22.2002 18.5036L22.1726 18.4952L18.232 17.6112H18.2308C18.1681 17.6001 18.1053 17.5901 18.0423 17.5812C17.8793 17.5574 17.7156 17.5388 17.5514 17.5253C17.3668 17.5095 17.1813 17.5059 16.9962 17.5145M18.3508 17.0224L18.4606 16.4331L18.4714 16.4349L22.4853 17.3351L22.5099 17.3435L22.5171 17.3459L22.5447 17.3543L22.6576 17.3867C22.7566 17.4143 22.8994 17.4509 23.0693 17.4881C23.4138 17.5638 23.8483 17.6334 24.254 17.6334C24.6285 17.6334 25.0156 17.7732 25.2226 18.1525C25.4003 18.4778 25.3589 18.8355 25.2923 19.0828C25.2094 19.3912 25.0378 19.7153 24.8199 19.9908C25.1421 19.8671 25.4626 19.739 25.7814 19.6067L25.8552 19.5767C26.8293 19.1764 27.984 18.7023 29.0024 18.5342C30.1668 18.3416 31.0136 18.7641 31.3977 19.5137C31.7398 20.1811 31.6606 21.0567 31.1456 21.5842C31.0166 21.7169 30.8197 21.8561 30.6223 21.9839C30.3734 22.1431 30.12 22.2952 29.8625 22.4401C29.1995 22.8113 28.5283 23.1679 27.8495 23.5095C26.4266 24.2315 24.9346 24.9337 24.4604 25.1072C23.9107 25.3082 23.3201 25.3274 22.753 25.298C22.4107 25.2767 22.0689 25.2477 21.7279 25.211C21.4781 25.1852 21.228 25.1622 20.9777 25.142C19.8206 25.0544 18.9324 24.7717 18.1149 24.5118L18.0153 24.48C17.1709 24.2117 16.3853 23.9741 15.344 23.9321C14.9899 23.9183 14.1095 23.9639 13.6353 23.9915L13.001 24.0287V17.6508L13.4001 17.5091C14.2133 17.2199 15.7899 16.6527 16.1758 16.4769C16.4171 16.367 16.6962 16.3298 16.9272 16.316C17.1663 16.3043 17.4059 16.3085 17.6444 16.3286C17.9113 16.3495 18.1771 16.3832 18.4408 16.4295L18.4552 16.4319L18.4588 16.4325H18.4612L18.3508 17.0224Z" fill="#F6F2E7"/>
<path fill-rule="evenodd" clip-rule="evenodd" d="M10 17.5099C10 17.1915 10.1265 16.8862 10.3516 16.6611C10.5767 16.436 10.882 16.3096 11.2003 16.3096H13.0008C13.3191 16.3096 13.6245 16.436 13.8496 16.6611C14.0747 16.8862 14.2011 17.1915 14.2011 17.5099V24.1092C14.2011 24.4276 14.0747 24.7329 13.8496 24.958C13.6245 25.1831 13.3191 25.3096 13.0008 25.3096H11.2003C10.882 25.3096 10.5767 25.1831 10.3516 24.958C10.1265 24.7329 10 24.4276 10 24.1092V17.5099ZM11.2003 17.5099V24.1092H13.0008V17.5105L11.2003 17.5099Z" fill="#F6F2E7"/>
</svg>
