<svg width="137" height="68" viewBox="0 0 137 68" fill="none" xmlns="http://www.w3.org/2000/svg">
<path d="M89.1453 41.4202C88.1143 40.0902 88.0473 38.9672 88.3623 37.5352C88.5263 36.7892 88.5033 36.0682 88.1123 35.4072C87.2483 33.9442 85.5813 34.2232 84.1883 34.6712C79.5773 36.1542 74.4953 39.2402 71.1073 42.8392C72.8223 37.3372 76.6083 32.6472 76.1183 26.5102C75.9823 24.8032 75.3563 23.0262 73.4813 22.6302C71.3963 22.1902 70.1593 23.5832 68.6753 24.7042C66.0973 26.6532 65.9173 22.6182 63.3053 23.2442C61.5773 23.6572 60.8493 26.0302 60.5993 27.5182C59.6283 33.2772 62.4873 38.9892 65.2693 43.8662C65.2673 43.8682 65.2663 43.8702 65.2653 43.8722C62.5523 39.4802 58.2113 35.8272 53.6483 33.4372C52.3133 32.7372 50.5053 31.9832 49.1493 33.0952C47.3443 34.5752 49.0753 36.9972 47.8013 38.7462C46.6563 40.3182 45.4143 41.0672 45.7363 43.3302C45.9923 45.1352 47.2193 46.3492 48.8013 47.1292C53.8043 49.5982 59.5873 48.0262 64.5723 46.3712C61.9503 47.9522 59.5053 50.0152 57.1233 51.9212C55.1573 53.4952 53.2723 55.2782 52.4743 57.7392C51.9853 59.2482 51.6603 61.6952 53.2883 62.6672C54.9163 63.6392 56.6833 62.2962 58.2073 61.8682C59.1673 61.5992 59.2393 61.3672 59.9103 62.2782C60.3283 62.8462 60.4183 63.7402 60.6923 64.3812C61.0493 65.2192 61.4603 66.0122 62.1863 66.5912C63.6713 67.7782 65.3613 67.4422 66.4683 65.9712C67.9553 63.9952 68.3963 60.9502 68.7303 58.5752C68.9403 57.0782 69.0473 55.5712 69.1023 54.0612C69.3993 55.5152 69.7693 56.9532 70.1633 58.3622C70.7983 60.6232 71.4353 63.2872 72.9713 65.1392C73.8323 66.1782 75.6003 67.5392 77.0333 66.7572C77.8383 66.3182 78.1243 65.2452 78.5493 64.5222C79.1463 63.5052 79.6923 62.5032 81.0133 62.3662C81.8613 62.2782 83.0303 62.7702 83.9133 62.8452C88.6653 63.2472 88.1623 57.8482 86.1353 55.1192C83.5113 51.5892 78.7103 49.5702 74.2853 48.2012C78.2693 48.9362 82.5483 49.5342 86.2903 48.3732C87.9153 47.8692 89.7223 46.9962 90.4023 45.3222C91.1543 43.4612 90.1593 42.7282 89.1453 41.4202ZM61.7543 30.0422C61.7333 29.0022 62.2913 22.9102 65.8193 26.2442C66.3383 26.7492 67.0583 27.3582 67.8523 27.1762C69.1433 26.8812 70.0413 24.9022 71.2013 24.3012C75.6863 21.9792 74.9003 29.5602 74.4533 31.6372C73.5943 35.6272 71.3493 39.0992 70.2343 42.9622C69.8593 42.6982 69.4403 42.5122 69.0093 42.4382C69.0133 41.3382 68.9853 40.2432 69.0903 39.1442C69.2093 37.9032 69.5153 36.6992 69.6753 35.4652C69.7213 35.1182 69.2253 35.1222 69.1153 35.3892C68.2603 37.4742 68.0703 40.1432 68.3903 42.4142C68.1513 42.4362 67.9123 42.4942 67.6793 42.5992C67.3083 39.4132 66.9143 36.1382 66.3333 32.9892C66.2803 32.7032 65.8493 32.7832 65.8423 33.0552C65.7593 36.1752 66.3743 39.7222 67.3393 42.6822C66.7673 42.7842 66.2273 43.0182 65.7793 43.3652C63.7733 39.2042 61.8483 34.7072 61.7543 30.0422ZM64.4953 45.3692C60.4953 46.5162 56.2383 47.8042 52.0483 46.9722C49.4763 46.4622 45.9653 44.7802 47.0543 41.5362C47.5613 40.0242 49.1353 39.6762 49.6893 38.3072C50.1703 37.1192 49.2283 36.3832 49.4673 35.2102C50.1243 31.9832 55.1613 35.8162 56.1313 36.4782C59.0743 38.4882 61.6023 40.9712 64.1203 43.4712C62.2573 42.4802 60.0273 41.6612 58.1293 41.2082C57.8933 41.1512 57.7253 41.4952 57.9583 41.6152C59.0473 42.1772 60.2153 42.5722 61.3513 43.0312C62.5283 43.5072 63.6983 44.0832 64.9143 44.4562C64.8953 44.5032 64.8733 44.5472 64.8553 44.5942C61.4323 43.3112 56.9803 42.7332 53.3283 42.5902C53.1333 42.5822 53.0963 42.8792 53.2823 42.9272C55.2993 43.4602 57.3993 43.7152 59.4523 44.0872C61.2063 44.4052 62.9643 44.8572 64.7463 44.9272C64.7113 45.0662 64.6773 45.2052 64.6633 45.3532C64.6103 45.3522 64.5563 45.3512 64.4953 45.3692ZM66.6533 62.5352C66.3473 63.4142 65.9183 64.9782 65.1483 65.5682C62.5923 67.5282 61.6723 62.9342 61.1783 61.8352C60.8733 61.1582 60.4883 60.2402 59.6603 60.0432C58.5813 59.7862 57.2983 60.9172 56.4153 61.2452C51.8583 62.9332 53.7593 57.0882 55.3113 55.2172C58.0213 51.9502 61.9403 49.8512 64.9203 46.8452C65.0763 47.2212 65.3023 47.5632 65.5693 47.8682C65.5473 47.8852 65.5183 47.8892 65.5013 47.9122C64.6393 49.0472 63.9693 50.3262 63.2333 51.5442C62.4993 52.7582 61.6323 53.9282 61.0323 55.2132C60.8803 55.5392 61.2903 55.9332 61.5663 55.6252C62.5333 54.5432 63.2523 53.2292 63.9983 51.9912C64.7223 50.7892 65.4623 49.5732 65.9683 48.2612C66.0723 48.3492 66.1853 48.4252 66.2963 48.5022C66.2793 48.5232 66.2623 48.5442 66.2503 48.5722C65.0603 51.4732 63.9003 54.6272 63.3893 57.7292C63.3433 58.0102 63.7033 58.1042 63.8113 57.8452C65.0183 54.9462 65.8753 51.7952 66.7673 48.7822C67.1953 48.9992 67.6583 49.1452 68.1393 49.1762C68.1903 53.6592 68.1433 58.2562 66.6533 62.5352ZM68.5483 47.4872C67.5603 47.6082 66.5923 46.9202 66.2543 45.9982C65.8553 44.9082 66.7393 43.7632 67.7883 43.4322C68.8353 43.6012 69.8993 43.7312 70.2483 44.9442C70.5873 46.1282 69.7613 47.3392 68.5483 47.4872ZM83.5943 54.0472C85.6643 55.8362 89.0733 61.4312 83.5053 61.4942C82.1893 61.5092 81.2253 60.7752 79.8553 61.2642C78.5403 61.7342 78.1393 62.8002 77.4003 63.8532C76.0863 65.7262 75.1093 65.8842 73.6893 63.8702C73.2103 63.1892 72.8633 62.3992 72.5573 61.6322C71.0293 57.7972 70.2563 53.7492 69.1363 49.7972C69.1343 49.5612 69.1343 49.3242 69.1313 49.0882C69.1643 49.0802 69.1933 49.0662 69.2263 49.0572C69.2433 49.1612 69.2673 49.2692 69.3103 49.3872C69.4093 49.6532 69.5493 49.9092 69.6743 50.1642C70.0123 50.8552 70.3763 51.5362 70.7653 52.2002C71.4633 53.3962 72.2323 54.6112 73.1893 55.6162C73.4393 55.8782 73.8853 55.5392 73.6933 55.2282C72.8383 53.8482 71.8433 52.5642 71.0213 51.1592C70.6563 50.5332 70.3273 49.5532 69.8693 48.8092C70.0073 48.7402 70.1303 48.6492 70.2563 48.5642C72.3503 51.1952 74.3633 54.0322 76.7803 56.3562C76.9893 56.5572 77.3733 56.2922 77.1973 56.0342C75.3053 53.2672 72.8433 50.8072 70.5933 48.3082C70.7303 48.1892 70.8653 48.0692 70.9803 47.9282C75.3203 49.5772 80.0133 50.9542 83.5943 54.0472ZM89.3433 44.3482C89.3323 46.3392 87.8573 46.6752 85.9913 47.3042C84.9873 47.6432 83.9493 47.8072 82.8933 47.8912C79.1393 48.1862 75.2693 47.4962 71.5633 46.9142C71.6033 46.7992 71.6183 46.6742 71.6463 46.5542C73.1743 46.5312 74.7303 46.5602 76.2453 46.3522C76.5873 46.3052 76.4873 45.7782 76.1673 45.7682C74.6943 45.7252 73.2053 45.9162 71.7373 46.0562C71.7583 45.8222 71.7633 45.5852 71.7343 45.3412C74.6053 44.7002 77.6263 43.8842 80.1553 42.4112C80.4333 42.2492 80.2513 41.7842 79.9323 41.8832C77.1173 42.7542 74.4153 43.9152 71.5893 44.7702C71.4813 44.4512 71.3333 44.1372 71.1243 43.8492C74.8063 40.4422 84.0823 35.1822 86.0823 35.6902C88.2673 36.2462 86.4503 38.9972 86.8743 40.4412C87.2353 41.6742 89.3503 43.1292 89.3433 44.3482Z" fill="#C55437"/>
<path d="M9.29343 14.1189C8.50843 16.9649 8.29742 19.9399 8.55942 22.8759C8.71642 24.6339 8.97243 26.9679 9.80843 28.8109C7.09143 27.1349 3.79943 26.6109 0.445426 27.1119C-0.264574 27.2179 -0.0665721 28.2369 0.622428 28.1919C0.674428 28.1889 0.725427 28.1849 0.777427 28.1809C0.810427 28.2049 0.837426 28.2329 0.876426 28.2499C7.02743 30.9379 9.55842 36.2769 13.3504 41.4029C16.5364 45.7089 20.8164 49.1319 25.7124 51.3069C34.0954 55.0309 47.1114 55.4549 54.0664 48.5029C54.1274 48.4879 54.1904 48.4769 54.2514 48.4609C54.6184 48.3679 54.6344 47.8259 54.2284 47.7789C49.6984 47.2579 45.3654 47.4349 40.9654 45.9079C36.4334 44.3349 32.2614 41.5319 29.5014 37.5619C26.4904 33.2289 25.8334 27.9229 29.1004 23.5189C31.9494 19.6789 36.4824 18.0749 41.1244 18.1619C41.1484 18.1619 41.1664 18.1539 41.1894 18.1519C41.5264 18.2889 41.8624 18.4279 42.2104 18.5479C42.6694 18.7049 43.1914 18.1029 42.7984 17.7159C40.8944 15.8429 37.0994 14.4559 33.7624 14.4919C37.1674 13.2069 40.5004 12.0669 44.3434 11.8649C46.8164 11.7349 49.3154 11.9199 51.7434 12.3969C54.4594 12.9319 56.8724 14.0689 59.4914 14.8709C59.7084 14.9369 59.9014 14.8679 60.0314 14.7389C60.5154 15.1009 61.0464 14.3869 60.7264 13.9289C55.9124 7.03094 46.6134 2.34893 38.4074 1.40593C32.0764 0.677934 23.9504 1.90894 19.0354 6.49794C20.1204 4.63794 21.3094 2.84293 22.3204 0.939935C22.3734 0.913935 22.4244 0.885935 22.4784 0.859935C23.0224 0.600935 22.6514 -0.148065 22.1044 0.025935C15.7454 2.04693 11.0364 7.80293 9.29343 14.1189ZM17.0964 8.71894C17.0934 8.72994 17.0954 8.73893 17.0934 8.74993C16.9374 8.97693 16.7714 9.19493 16.6294 9.43293C16.4324 9.76393 16.8814 10.0859 17.1224 9.77793C22.0084 3.54693 32.0604 1.90193 39.4254 3.04693C43.5034 3.68093 47.4114 5.22393 50.9384 7.34693C53.3794 8.81693 55.4224 10.6339 57.4814 12.4889C53.6314 10.7099 48.8074 10.2529 44.8334 10.3929C39.7734 10.5719 33.4744 11.8449 29.6544 15.4379C29.5934 15.4959 29.5644 15.5629 29.5574 15.6289C29.5084 15.6629 29.4534 15.6879 29.4064 15.7239C29.0834 15.9629 29.4224 16.3909 29.7544 16.2829C31.9134 15.5749 34.3314 15.8569 36.5054 16.3729C37.1494 16.5259 37.7584 16.7419 38.3584 16.9759C29.5014 17.2199 22.6804 26.6449 26.2854 35.2609C30.1184 44.4179 42.1414 50.1969 52.0314 48.8829C42.9004 53.7369 31.5674 53.5089 22.7044 47.9889C17.8074 44.9379 14.6574 40.6769 11.5134 35.9609C9.49343 32.9299 7.06742 29.6609 3.74042 28.0279C4.80842 28.0329 5.86644 28.1529 6.92544 28.5479C9.16244 29.3819 11.3734 30.9059 13.0034 32.6309C13.2544 32.8959 13.6424 32.5689 13.4374 32.2729C12.8554 31.4309 12.2004 30.6959 11.4884 30.0599C7.31543 19.5209 10.8854 7.78593 20.3944 1.99293C18.8454 3.95393 17.8394 6.37794 17.0964 8.71894Z" fill="#C55437"/>
<path d="M15.4101 29.2008C16.2311 35.4268 19.8171 41.3258 24.5311 45.3438C30.6441 50.5538 38.2731 51.0498 45.9381 50.4258C46.1661 50.4068 46.1561 50.0199 45.9241 50.0229C39.0141 50.1119 31.9061 49.5079 26.2611 45.1059C23.1191 42.6559 20.4431 39.2899 18.7111 35.5399C18.4041 32.4369 19.8521 28.7329 21.2131 26.3519C23.0991 23.0539 25.8291 20.4808 29.1351 18.6448C29.4521 18.4688 29.2441 17.9788 28.9021 18.1238C24.8891 19.8258 21.6891 22.9418 19.7571 26.8398C18.9631 28.4398 18.0291 30.8908 17.7831 33.2298C17.1021 31.2388 16.6911 29.1768 16.6291 27.1098C16.4101 19.9058 21.0671 13.7148 27.2881 10.4808C33.7161 7.13985 40.5521 7.53285 47.5261 7.97485C47.9361 8.00085 48.1241 7.35885 47.6921 7.24185C34.2801 3.60885 15.0981 10.5269 15.2301 26.6909C15.2331 27.0519 15.2531 27.4118 15.2751 27.7718C14.2121 24.8428 13.7741 21.7068 13.9481 18.5878C14.1481 15.0108 15.2981 11.8818 16.2871 8.49285C16.3691 8.21385 15.9891 7.97585 15.8131 8.24485C11.8871 14.2688 11.8371 23.0628 15.4101 29.2008Z" fill="#C55437"/>
<path d="M114.245 0.025935C113.697 -0.148065 113.326 0.600935 113.871 0.859935C113.924 0.884935 113.974 0.913935 114.028 0.939935C115.04 2.84293 116.228 4.63794 117.313 6.49794C112.398 1.90894 104.272 0.678934 97.9413 1.40593C89.7353 2.34893 80.4363 7.03094 75.6223 13.9289C75.3033 14.3869 75.8333 15.1009 76.3183 14.7389C76.4473 14.8679 76.6403 14.9379 76.8573 14.8709C79.4763 14.0689 81.8883 12.9319 84.6043 12.3969C87.0333 11.9189 89.5333 11.7349 92.0043 11.8649C95.8473 12.0669 99.1803 13.2079 102.585 14.4919C99.2483 14.4549 95.4533 15.8429 93.5493 17.7159C93.1563 18.1029 93.6793 18.7049 94.1373 18.5479C94.4863 18.4279 94.8213 18.2889 95.1583 18.1519C95.1803 18.1539 95.1983 18.1629 95.2233 18.1619C99.8653 18.0749 104.397 19.6789 107.246 23.5189C110.513 27.9229 109.856 33.2289 106.846 37.5619C104.086 41.5319 99.9133 44.3339 95.3823 45.9079C90.9823 47.4349 86.6493 47.2579 82.1183 47.7789C81.7123 47.8259 81.7283 48.3669 82.0963 48.4609C82.1573 48.4769 82.2193 48.4879 82.2803 48.5029C89.2363 55.4549 102.252 55.0299 110.635 51.3069C115.53 49.1329 119.811 45.7089 122.996 41.4029C126.788 36.2769 129.318 30.9389 135.47 28.2499C135.509 28.2329 135.536 28.2049 135.569 28.1809C135.621 28.1849 135.673 28.1889 135.724 28.1919C136.413 28.2369 136.611 27.2179 135.901 27.1119C132.547 26.6109 129.256 27.1339 126.539 28.8109C127.374 26.9679 127.631 24.6339 127.787 22.8759C128.049 19.9399 127.839 16.9639 127.054 14.1189C125.312 7.80193 120.603 2.04593 114.245 0.025935ZM115.955 1.98893C125.465 7.78193 129.034 19.5179 124.861 30.0559C124.149 30.6929 123.494 31.4269 122.912 32.2689C122.707 32.5659 123.096 32.8919 123.346 32.6269C124.976 30.9019 127.186 29.3779 129.423 28.5439C130.483 28.1489 131.54 28.0289 132.609 28.0239C129.281 29.6569 126.855 32.9259 124.835 35.9569C121.691 40.6729 118.542 44.9339 113.645 47.9849C104.783 53.5059 93.4503 53.7339 84.3183 48.8789C94.2103 50.1929 106.232 44.4139 110.065 35.2569C113.67 26.6419 106.85 17.2159 97.9923 16.9719C98.5933 16.7389 99.2013 16.5229 99.8453 16.3689C102.019 15.8529 104.437 15.5699 106.596 16.2789C106.927 16.3879 107.266 15.9599 106.944 15.7199C106.896 15.6849 106.84 15.6589 106.792 15.6249C106.786 15.5589 106.757 15.4919 106.695 15.4339C102.877 11.8409 96.5763 10.5679 91.5163 10.3889C87.5423 10.2479 82.7193 10.7049 78.8693 12.4849C80.9293 10.6309 82.9723 8.81294 85.4133 7.34294C88.9403 5.21894 92.8493 3.67594 96.9263 3.04294C104.29 1.89694 114.343 3.54294 119.229 9.77394C119.47 10.0819 119.919 9.75994 119.722 9.42894C119.579 9.19094 119.413 8.97294 119.258 8.74594C119.255 8.73494 119.257 8.72593 119.254 8.71493C118.51 6.37693 117.503 3.95293 115.955 1.98893Z" fill="#C55437"/>
<path d="M120.939 29.2008C120.118 35.4268 116.532 41.3258 111.819 45.3438C105.706 50.5538 98.0768 51.0498 90.4118 50.4258C90.1838 50.4068 90.1938 50.0199 90.4258 50.0229C97.3358 50.1119 104.444 49.5079 110.089 45.1059C113.231 42.6559 115.906 39.2899 117.639 35.5399C117.947 32.4369 116.498 28.7329 115.137 26.3519C113.251 23.0539 110.521 20.4808 107.215 18.6448C106.898 18.4688 107.106 17.9788 107.448 18.1238C111.461 19.8258 114.661 22.9418 116.594 26.8398C117.388 28.4398 118.321 30.8908 118.568 33.2298C119.249 31.2388 119.66 29.1768 119.722 27.1098C119.941 19.9058 115.283 13.7148 109.063 10.4808C102.635 7.13985 95.7988 7.53285 88.8248 7.97485C88.4148 8.00085 88.2258 7.35885 88.6588 7.24185C102.071 3.60885 121.254 10.5269 121.121 26.6909C121.118 27.0519 121.099 27.4118 121.076 27.7718C122.14 24.8428 122.578 21.7068 122.403 18.5878C122.203 15.0108 121.053 11.8818 120.064 8.49285C119.983 8.21385 120.363 7.97585 120.539 8.24485C124.462 14.2688 124.513 23.0628 120.939 29.2008Z" fill="#C55437"/>
</svg>
