<svg width="42" height="42" viewBox="0 0 42 42" fill="none" xmlns="http://www.w3.org/2000/svg">
<circle opacity="0.2" cx="20.9819" cy="20.9702" r="19.6606" stroke="#F6F2E7" stroke-width="2"/>
<path d="M18.8211 23.7398V24.2256C18.8211 25.2201 19.2162 26.174 19.9195 26.8772C20.6227 27.5805 21.5766 27.9756 22.5711 27.9756C23.5657 27.9756 24.5195 27.5805 25.2228 26.8772C25.926 26.174 26.3211 25.2201 26.3211 24.2256V22.8339C25.7649 22.6373 25.296 22.2504 24.9975 21.7416C24.6989 21.2327 24.5899 20.6347 24.6896 20.0533C24.7893 19.4718 25.0914 18.9443 25.5425 18.564C25.9935 18.1837 26.5645 17.9752 27.1545 17.9752C27.7444 17.9752 28.3154 18.1837 28.7664 18.564C29.2175 18.9443 29.5196 19.4718 29.6193 20.0533C29.719 20.6347 29.61 21.2327 29.3114 21.7416C29.0129 22.2504 28.544 22.6373 27.9878 22.8339V24.2256C27.9878 25.6622 27.4171 27.0399 26.4013 28.0557C25.3855 29.0716 24.0077 29.6423 22.5711 29.6423C21.1345 29.6423 19.7568 29.0716 18.741 28.0557C17.7251 27.0399 17.1545 25.6622 17.1545 24.2256V23.7398C15.9893 23.5428 14.9315 22.9395 14.1687 22.0369C13.406 21.1343 12.9876 19.9907 12.9878 18.8089V14.6423C12.9878 14.2002 13.1634 13.7763 13.4759 13.4637C13.7885 13.1512 14.2124 12.9756 14.6545 12.9756H15.4878C15.7088 12.9756 15.9208 13.0634 16.077 13.2197C16.2333 13.3759 16.3211 13.5879 16.3211 13.8089C16.3211 14.0299 16.2333 14.2419 16.077 14.3982C15.9208 14.5545 15.7088 14.6423 15.4878 14.6423H14.6545V18.8089C14.6545 19.693 15.0056 20.5408 15.6308 21.1659C16.2559 21.7911 17.1037 22.1423 17.9878 22.1423C18.8718 22.1423 19.7197 21.7911 20.3448 21.1659C20.9699 20.5408 21.3211 19.693 21.3211 18.8089V14.6423H20.4878C20.2668 14.6423 20.0548 14.5545 19.8985 14.3982C19.7423 14.2419 19.6545 14.0299 19.6545 13.8089C19.6545 13.5879 19.7423 13.3759 19.8985 13.2197C20.0548 13.0634 20.2668 12.9756 20.4878 12.9756H21.3211C21.7632 12.9756 22.1871 13.1512 22.4996 13.4637C22.8122 13.7763 22.9878 14.2002 22.9878 14.6423V18.8089C22.988 19.9907 22.5696 21.1343 21.8069 22.0369C21.0441 22.9395 19.9863 23.5428 18.8211 23.7398ZM27.1545 21.3089C27.3755 21.3089 27.5874 21.2211 27.7437 21.0648C27.9 20.9086 27.9878 20.6966 27.9878 20.4756C27.9878 20.2546 27.9 20.0426 27.7437 19.8863C27.5874 19.73 27.3755 19.6423 27.1545 19.6423C26.9334 19.6423 26.7215 19.73 26.5652 19.8863C26.4089 20.0426 26.3211 20.2546 26.3211 20.4756C26.3211 20.6966 26.4089 20.9086 26.5652 21.0648C26.7215 21.2211 26.9334 21.3089 27.1545 21.3089Z" fill="#F6F2E7"/>
</svg>
