<svg width="42" height="42" viewBox="0 0 42 42" fill="none" xmlns="http://www.w3.org/2000/svg">
<circle opacity="0.2" cx="20.6606" cy="20.9702" r="19.6606" stroke="#F6F2E7" stroke-width="2"/>
<path d="M27.8703 28.277H26.1284V14.3419H26.709C26.863 14.3419 27.0107 14.2807 27.1196 14.1719C27.2285 14.063 27.2897 13.9153 27.2897 13.7613C27.2897 13.6073 27.2285 13.4596 27.1196 13.3507C27.0107 13.2418 26.863 13.1807 26.709 13.1807H13.9352C13.7812 13.1807 13.6336 13.2418 13.5247 13.3507C13.4158 13.4596 13.3546 13.6073 13.3546 13.7613C13.3546 13.9153 13.4158 14.063 13.5247 14.1719C13.6336 14.2807 13.7812 14.3419 13.9352 14.3419H14.5159V28.277H12.774C12.62 28.277 12.4723 28.3381 12.3634 28.447C12.2545 28.5559 12.1934 28.7036 12.1934 28.8576C12.1934 29.0116 12.2545 29.1593 12.3634 29.2682C12.4723 29.377 12.62 29.4382 12.774 29.4382H27.8703C28.0243 29.4382 28.172 29.377 28.2809 29.2682C28.3897 29.1593 28.4509 29.0116 28.4509 28.8576C28.4509 28.7036 28.3897 28.5559 28.2809 28.447C28.172 28.3381 28.0243 28.277 27.8703 28.277ZM15.6771 14.3419H24.9672V28.277H22.6446V25.3738C22.6446 25.2198 22.5835 25.0722 22.4746 24.9633C22.3657 24.8544 22.218 24.7932 22.064 24.7932H18.5803C18.4263 24.7932 18.2786 24.8544 18.1697 24.9633C18.0608 25.0722 17.9996 25.2198 17.9996 25.3738V28.277H15.6771V14.3419ZM21.4834 28.277H19.1609V25.9545H21.4834V28.277ZM17.419 16.6644C17.419 16.5104 17.4802 16.3627 17.5891 16.2539C17.698 16.145 17.8456 16.0838 17.9996 16.0838H19.1609C19.3149 16.0838 19.4626 16.145 19.5714 16.2539C19.6803 16.3627 19.7415 16.5104 19.7415 16.6644C19.7415 16.8184 19.6803 16.9661 19.5714 17.075C19.4626 17.1839 19.3149 17.2451 19.1609 17.2451H17.9996C17.8456 17.2451 17.698 17.1839 17.5891 17.075C17.4802 16.9661 17.419 16.8184 17.419 16.6644ZM20.9028 16.6644C20.9028 16.5104 20.9639 16.3627 21.0728 16.2539C21.1817 16.145 21.3294 16.0838 21.4834 16.0838H22.6446C22.7986 16.0838 22.9463 16.145 23.0552 16.2539C23.1641 16.3627 23.2253 16.5104 23.2253 16.6644C23.2253 16.8184 23.1641 16.9661 23.0552 17.075C22.9463 17.1839 22.7986 17.2451 22.6446 17.2451H21.4834C21.3294 17.2451 21.1817 17.1839 21.0728 17.075C20.9639 16.9661 20.9028 16.8184 20.9028 16.6644ZM17.419 19.5676C17.419 19.4136 17.4802 19.2659 17.5891 19.157C17.698 19.0481 17.8456 18.9869 17.9996 18.9869H19.1609C19.3149 18.9869 19.4626 19.0481 19.5714 19.157C19.6803 19.2659 19.7415 19.4136 19.7415 19.5676C19.7415 19.7216 19.6803 19.8692 19.5714 19.9781C19.4626 20.087 19.3149 20.1482 19.1609 20.1482H17.9996C17.8456 20.1482 17.698 20.087 17.5891 19.9781C17.4802 19.8692 17.419 19.7216 17.419 19.5676ZM20.9028 19.5676C20.9028 19.4136 20.9639 19.2659 21.0728 19.157C21.1817 19.0481 21.3294 18.9869 21.4834 18.9869H22.6446C22.7986 18.9869 22.9463 19.0481 23.0552 19.157C23.1641 19.2659 23.2253 19.4136 23.2253 19.5676C23.2253 19.7216 23.1641 19.8692 23.0552 19.9781C22.9463 20.087 22.7986 20.1482 22.6446 20.1482H21.4834C21.3294 20.1482 21.1817 20.087 21.0728 19.9781C20.9639 19.8692 20.9028 19.7216 20.9028 19.5676ZM17.419 22.4707C17.419 22.3167 17.4802 22.169 17.5891 22.0601C17.698 21.9512 17.8456 21.8901 17.9996 21.8901H19.1609C19.3149 21.8901 19.4626 21.9512 19.5714 22.0601C19.6803 22.169 19.7415 22.3167 19.7415 22.4707C19.7415 22.6247 19.6803 22.7724 19.5714 22.8813C19.4626 22.9902 19.3149 23.0513 19.1609 23.0513H17.9996C17.8456 23.0513 17.698 22.9902 17.5891 22.8813C17.4802 22.7724 17.419 22.6247 17.419 22.4707ZM20.9028 22.4707C20.9028 22.3167 20.9639 22.169 21.0728 22.0601C21.1817 21.9512 21.3294 21.8901 21.4834 21.8901H22.6446C22.7986 21.8901 22.9463 21.9512 23.0552 22.0601C23.1641 22.169 23.2253 22.3167 23.2253 22.4707C23.2253 22.6247 23.1641 22.7724 23.0552 22.8813C22.9463 22.9902 22.7986 23.0513 22.6446 23.0513H21.4834C21.3294 23.0513 21.1817 22.9902 21.0728 22.8813C20.9639 22.7724 20.9028 22.6247 20.9028 22.4707Z" fill="#F6F2E7"/>
</svg>
