<svg width="42" height="42" viewBox="0 0 42 42" fill="none" xmlns="http://www.w3.org/2000/svg">
<circle opacity="0.2" cx="20.6606" cy="21.0781" r="19.6606" stroke="#C85438" stroke-width="2"/>
<path d="M21 31.1079C19.6167 31.1079 18.3167 30.8452 17.1 30.3199C15.8833 29.7946 14.825 29.0822 13.925 28.1829C13.025 27.2836 12.3127 26.2252 11.788 25.0079C11.2633 23.7906 11.0007 22.4906 11 21.1079C10.9993 19.7252 11.262 18.4252 11.788 17.2079C12.314 15.9906 13.0263 14.9322 13.925 14.0329C14.8237 13.1336 15.882 12.4212 17.1 11.8959C18.318 11.3706 19.618 11.1079 21 11.1079C22.382 11.1079 23.682 11.3706 24.9 11.8959C26.118 12.4212 27.1763 13.1336 28.075 14.0329C28.9737 14.9322 29.6863 15.9906 30.213 17.2079C30.7397 18.4252 31.002 19.7252 31 21.1079C30.998 22.4906 30.7353 23.7906 30.212 25.0079C29.6887 26.2252 28.9763 27.2836 28.075 28.1829C27.1737 29.0822 26.1153 29.7949 24.9 30.3209C23.6847 30.8469 22.3847 31.1092 21 31.1079ZM21 29.1079C23.2333 29.1079 25.125 28.3329 26.675 26.7829C28.225 25.2329 29 23.3412 29 21.1079C29 18.8746 28.225 16.9829 26.675 15.4329C25.125 13.8829 23.2333 13.1079 21 13.1079C18.7667 13.1079 16.875 13.8829 15.325 15.4329C13.775 16.9829 13 18.8746 13 21.1079C13 23.3412 13.775 25.2329 15.325 26.7829C16.875 28.3329 18.7667 29.1079 21 29.1079ZM21 27.1079C19.3333 27.1079 17.9167 26.5246 16.75 25.3579C15.5833 24.1912 15 22.7746 15 21.1079C15 19.4412 15.5833 18.0246 16.75 16.8579C17.9167 15.6912 19.3333 15.1079 21 15.1079C22.6667 15.1079 24.0833 15.6912 25.25 16.8579C26.4167 18.0246 27 19.4412 27 21.1079C27 22.7746 26.4167 24.1912 25.25 25.3579C24.0833 26.5246 22.6667 27.1079 21 27.1079ZM21 25.1079C22.1 25.1079 23.0417 24.7162 23.825 23.9329C24.6083 23.1496 25 22.2079 25 21.1079C25 20.0079 24.6083 19.0662 23.825 18.2829C23.0417 17.4996 22.1 17.1079 21 17.1079C19.9 17.1079 18.9583 17.4996 18.175 18.2829C17.3917 19.0662 17 20.0079 17 21.1079C17 22.2079 17.3917 23.1496 18.175 23.9329C18.9583 24.7162 19.9 25.1079 21 25.1079ZM21 23.1079C20.45 23.1079 19.9793 22.9122 19.588 22.5209C19.1967 22.1296 19.0007 21.6586 19 21.1079C18.9993 20.5572 19.1953 20.0866 19.588 19.6959C19.9807 19.3052 20.4513 19.1092 21 19.1079C21.5487 19.1066 22.0197 19.3026 22.413 19.6959C22.8063 20.0892 23.002 20.5599 23 21.1079C22.998 21.6559 22.8023 22.1269 22.413 22.5209C22.0237 22.9149 21.5527 23.1106 21 23.1079Z" fill="#C85438"/>
</svg>
