<svg width="42" height="42" viewBox="0 0 42 42" fill="none" xmlns="http://www.w3.org/2000/svg">
<circle opacity="0.2" cx="20.6606" cy="20.6606" r="19.6606" stroke="#C55437" stroke-width="2"/>
<path d="M18.4998 23.4302V23.916C18.4998 24.9106 18.8949 25.8644 19.5982 26.5677C20.3014 27.2709 21.2553 27.666 22.2498 27.666C23.2444 27.666 24.1982 27.2709 24.9015 26.5677C25.6047 25.8644 25.9998 24.9106 25.9998 23.916V22.5243C25.4436 22.3278 24.9748 21.9409 24.6762 21.432C24.3776 20.9232 24.2686 20.3252 24.3683 19.7437C24.4681 19.1622 24.7701 18.6347 25.2212 18.2545C25.6722 17.8742 26.2432 17.6656 26.8332 17.6656C27.4231 17.6656 27.9941 17.8742 28.4451 18.2545C28.8962 18.6347 29.1983 19.1622 29.298 19.7437C29.3977 20.3252 29.2887 20.9232 28.9901 21.432C28.6916 21.9409 28.2227 22.3278 27.6665 22.5243V23.916C27.6665 25.3526 27.0958 26.7304 26.08 27.7462C25.0642 28.762 23.6864 29.3327 22.2498 29.3327C20.8132 29.3327 19.4355 28.762 18.4197 27.7462C17.4039 26.7304 16.8332 25.3526 16.8332 23.916V23.4302C15.668 23.2332 14.6102 22.6299 13.8474 21.7273C13.0847 20.8247 12.6663 19.6811 12.6665 18.4993V14.3327C12.6665 13.8907 12.8421 13.4667 13.1547 13.1542C13.4672 12.8416 13.8911 12.666 14.3332 12.666H15.1665C15.3875 12.666 15.5995 12.7538 15.7558 12.9101C15.912 13.0664 15.9998 13.2783 15.9998 13.4993C15.9998 13.7204 15.912 13.9323 15.7558 14.0886C15.5995 14.2449 15.3875 14.3327 15.1665 14.3327H14.3332V18.4993C14.3332 19.3834 14.6844 20.2313 15.3095 20.8564C15.9346 21.4815 16.7824 21.8327 17.6665 21.8327C18.5506 21.8327 19.3984 21.4815 20.0235 20.8564C20.6486 20.2313 20.9998 19.3834 20.9998 18.4993V14.3327H20.1665C19.9455 14.3327 19.7335 14.2449 19.5772 14.0886C19.421 13.9323 19.3332 13.7204 19.3332 13.4993C19.3332 13.2783 19.421 13.0664 19.5772 12.9101C19.7335 12.7538 19.9455 12.666 20.1665 12.666H20.9998C21.4419 12.666 21.8658 12.8416 22.1783 13.1542C22.4909 13.4667 22.6665 13.8907 22.6665 14.3327V18.4993C22.6667 19.6811 22.2483 20.8247 21.4856 21.7273C20.7228 22.6299 19.665 23.2332 18.4998 23.4302ZM26.8332 20.9993C27.0542 20.9993 27.2661 20.9116 27.4224 20.7553C27.5787 20.599 27.6665 20.387 27.6665 20.166C27.6665 19.945 27.5787 19.733 27.4224 19.5768C27.2661 19.4205 27.0542 19.3327 26.8332 19.3327C26.6122 19.3327 26.4002 19.4205 26.2439 19.5768C26.0876 19.733 25.9998 19.945 25.9998 20.166C25.9998 20.387 26.0876 20.599 26.2439 20.7553C26.4002 20.9116 26.6122 20.9993 26.8332 20.9993Z" fill="#C55437"/>
</svg>
