<svg width="42" height="42" viewBox="0 0 42 42" fill="none" xmlns="http://www.w3.org/2000/svg">
<circle opacity="0.2" cx="20.6606" cy="20.9702" r="19.6606" stroke="#F6F2E7" stroke-width="2"/>
<path fill-rule="evenodd" clip-rule="evenodd" d="M14.3192 26.9384C12.9103 25.3892 12.5253 23.4294 12.6967 21.6786C12.8856 19.7472 13.7665 17.8946 14.9132 16.9385C16.4459 15.6616 18.0556 15.1372 19.4526 14.8806C20.1329 14.7644 20.818 14.6779 21.5059 14.6212C21.8762 14.5863 22.2512 14.5515 22.6114 14.4617C23.3704 14.2719 24.1193 13.9639 24.7362 13.4744C25.0186 13.2498 25.3046 13.0225 25.685 13.0647C25.8217 13.0799 25.9533 13.1257 26.0699 13.1987C26.1866 13.2717 26.2853 13.37 26.3587 13.4863C29.2921 18.1311 28.8493 23.0618 26.3991 26.1675C25.1753 27.7176 23.4566 28.7992 21.4518 29.1192C19.7028 29.3969 17.7916 29.0862 15.8657 28.0778C15.6964 28.6038 15.5707 29.1428 15.4898 29.6893C15.4554 29.93 15.3268 30.1472 15.1323 30.293C14.9378 30.4389 14.6933 30.5015 14.4526 30.4671C14.2119 30.4327 13.9948 30.3041 13.8489 30.1096C13.703 29.9151 13.6404 29.6706 13.6748 29.4299C13.7885 28.637 14.0048 27.7927 14.3192 26.9384ZM19.7826 16.6837C20.4279 16.5654 21.0338 16.5086 21.6223 16.4508C22.1027 16.405 22.5867 16.3573 23.056 16.24C23.8464 16.0463 24.6034 15.7355 25.3018 15.3178C27.2983 19.0917 26.741 22.774 24.9599 25.0327C23.9992 26.25 22.6783 27.0677 21.1649 27.3078C19.8055 27.5242 18.2316 27.2858 16.5541 26.3673C17.5734 24.2892 19.2399 22.2973 21.4097 21.2129C21.6272 21.1042 21.7927 20.9136 21.8698 20.6829C21.9468 20.4522 21.929 20.2003 21.8203 19.9827C21.7116 19.7652 21.521 19.5996 21.2903 19.5226C21.0596 19.4456 20.8077 19.4634 20.5902 19.5721C18.1995 20.7674 16.368 22.8345 15.1772 25.0391C14.5897 24.0766 14.4137 22.9573 14.5218 21.8564C14.6767 20.2724 15.4018 18.9185 16.0866 18.3465C17.3039 17.3317 18.5872 16.9037 19.7835 16.6837H19.7826Z" fill="#F6F2E7"/>
</svg>
