<svg width="42" height="42" viewBox="0 0 42 42" fill="none" xmlns="http://www.w3.org/2000/svg">
<circle opacity="0.2" cx="20.6606" cy="20.6606" r="19.6606" stroke="#C55437" stroke-width="2"/>
<path fill-rule="evenodd" clip-rule="evenodd" d="M14.3192 26.6288C12.9103 25.0797 12.5253 23.1198 12.6967 21.369C12.8856 19.4376 13.7665 17.585 14.9132 16.6289C16.4459 15.352 18.0556 14.8277 19.4526 14.571C20.1329 14.4548 20.818 14.3683 21.5059 14.3116C21.8762 14.2768 22.2512 14.2419 22.6114 14.1521C23.3704 13.9623 24.1193 13.6543 24.7362 13.1648C25.0186 12.9403 25.3046 12.7129 25.685 12.7551C25.8217 12.7703 25.9533 12.8161 26.0699 12.8891C26.1866 12.9621 26.2853 13.0604 26.3587 13.1768C29.2921 17.8215 28.8493 22.7523 26.3991 25.8579C25.1753 27.408 23.4566 28.4897 21.4518 28.8096C19.7028 29.0873 17.7916 28.7766 15.8657 27.7683C15.6964 28.2942 15.5707 28.8332 15.4898 29.3798C15.4554 29.6204 15.3268 29.8376 15.1323 29.9835C14.9378 30.1293 14.6933 30.1919 14.4526 30.1575C14.2119 30.1231 13.9948 29.9945 13.8489 29.8C13.703 29.6055 13.6404 29.361 13.6748 29.1203C13.7885 28.3274 14.0048 27.4832 14.3192 26.6288ZM19.7826 16.3741C20.4279 16.2558 21.0338 16.199 21.6223 16.1413C22.1027 16.0954 22.5867 16.0478 23.056 15.9304C23.8464 15.7368 24.6034 15.4259 25.3018 15.0083C27.2983 18.7822 26.741 22.4644 24.9599 24.7231C23.9992 25.9404 22.6783 26.7581 21.1649 26.9983C19.8055 27.2146 18.2316 26.9763 16.5541 26.0578C17.5734 23.9797 19.2399 21.9878 21.4097 20.9033C21.6272 20.7947 21.7927 20.604 21.8698 20.3733C21.9468 20.1426 21.929 19.8908 21.8203 19.6732C21.7116 19.4556 21.521 19.2901 21.2903 19.2131C21.0596 19.136 20.8077 19.1538 20.5902 19.2625C18.1995 20.4578 16.368 22.5249 15.1772 24.7295C14.5897 23.767 14.4137 22.6478 14.5218 21.5468C14.6767 19.9628 15.4018 18.6089 16.0866 18.0369C17.3039 17.0222 18.5872 16.5941 19.7835 16.3741H19.7826Z" fill="#C55437"/>
</svg>
