<svg width="42" height="42" viewBox="0 0 42 42" fill="none" xmlns="http://www.w3.org/2000/svg">
<circle opacity="0.2" cx="20.6606" cy="20.6606" r="19.6606" stroke="#C55437" stroke-width="2"/>
<path d="M13.975 26.5C13.6417 26.3167 13.3833 26.071 13.2 25.763C13.0167 25.455 12.925 25.109 12.925 24.725V19.925L10.525 18.6C10.3417 18.5 10.2083 18.375 10.125 18.225C10.0417 18.075 10 17.9083 10 17.725C10 17.5417 10.0417 17.375 10.125 17.225C10.2083 17.075 10.3417 16.95 10.525 16.85L18.975 12.25C19.125 12.1667 19.2793 12.104 19.438 12.062C19.5967 12.02 19.759 11.9993 19.925 12C20.091 12.0007 20.2537 12.0217 20.413 12.063C20.5723 12.1043 20.7263 12.1667 20.875 12.25L30.4 17.45C30.5667 17.5333 30.696 17.6543 30.788 17.813C30.88 17.9717 30.9257 18.1423 30.925 18.325V24.725C30.925 25.0083 30.829 25.246 30.637 25.438C30.445 25.63 30.2077 25.7257 29.925 25.725C29.6423 25.7243 29.405 25.6283 29.213 25.437C29.021 25.2457 28.925 25.0083 28.925 24.725V18.825L26.925 19.925V24.725C26.925 25.1083 26.8333 25.4543 26.65 25.763C26.4667 26.0717 26.2083 26.3173 25.875 26.5L20.875 29.2C20.725 29.2833 20.571 29.346 20.413 29.388C20.255 29.43 20.0923 29.4507 19.925 29.45C19.7577 29.4493 19.595 29.4287 19.437 29.388C19.279 29.3473 19.125 29.2847 18.975 29.2L13.975 26.5ZM19.925 21.425L26.775 17.725L19.925 14.025L13.075 17.725L19.925 21.425ZM19.925 27.45L24.925 24.75V20.975L20.9 23.2C20.75 23.2833 20.5917 23.346 20.425 23.388C20.2583 23.43 20.0917 23.4507 19.925 23.45C19.7583 23.4493 19.5917 23.4287 19.425 23.388C19.2583 23.3473 19.1 23.2847 18.95 23.2L14.925 20.975V24.75L19.925 27.45Z" fill="#C55437"/>
</svg>
