<svg width="589" height="589" viewBox="0 0 589 589" fill="none" xmlns="http://www.w3.org/2000/svg">
<g clip-path="url(#clip0_656_38)">
<path d="M275.288 397.073C227.698 373.312 212.219 335.091 208.01 321.038C198.642 321.785 188.798 323.89 178.682 327.148C182.756 335.566 191.785 352.335 205.77 367.135C226.272 388.859 249.694 398.974 275.288 397.073Z" fill="#F46E4E"/>
<path d="M320.433 394.969C347.317 395.308 396.4 387.501 412.626 327.081C407.263 324.976 396.672 321.31 384.113 320.02C381.126 329.728 373.047 350.502 355.464 368.628C345.959 378.404 332.11 387.841 320.433 394.901V394.969Z" fill="#F46E4E"/>
<path d="M297.419 211.95C293.55 214.394 290.359 217.449 288.186 220.843C285.539 225.052 284.453 230.415 285.675 233.945C287.032 238.019 292.056 242.499 297.827 242.499C303.937 242.431 309.164 237.476 310.318 232.927C311.201 229.329 309.707 223.762 306.72 219.825C304.344 216.702 301.221 214.054 297.419 212.017V211.95Z" fill="#F46E4E"/>
<path d="M263.543 190.216C262.389 190.081 261.235 190.013 260.081 190.013C252.613 190.013 245.553 193.068 239.85 198.703C217.718 220.834 236.32 248.329 245.349 259.123C260.556 277.317 278.954 294.086 295.994 305.355C309.843 296.394 325.254 282.613 342.905 263.332C361.845 242.694 367.073 225.315 359.266 208.546C354.242 197.82 344.738 190.963 333.875 190.149C323.76 189.47 314.256 194.018 308.01 202.368C311.744 204.948 315.002 208.003 317.582 211.466C323.217 218.933 325.525 228.438 323.556 236.245C322.266 241.269 319.076 246.157 314.731 249.823C309.979 253.828 304.072 256.068 298.098 256.204C292.124 256.204 286.693 254.371 281.941 250.841C277.528 247.582 274.201 243.169 272.64 238.349C270.128 230.814 271.622 221.309 276.578 213.502C278.818 209.904 281.737 206.713 285.199 203.862C280.04 196.326 272.097 191.303 263.543 190.216Z" fill="#F46E4E"/>
<path d="M294.5 111.945C194.229 111.945 112.899 193.275 112.899 293.546C112.899 393.818 194.229 475.148 294.5 475.148C394.771 475.148 476.102 393.818 476.102 293.546C476.102 193.275 394.771 111.945 294.5 111.945ZM242.022 180.648C255.328 173.927 270.4 174.81 283.299 183.024C289.341 186.894 292.396 190.831 296.062 195.719C296.129 195.583 296.197 195.448 296.265 195.38C296.876 194.429 297.419 193.547 297.691 193.275C307.059 181.395 320.705 175.285 335.165 176.507C349.693 177.661 362.796 186.351 370.128 199.657C398.03 250.03 326 301.965 311.269 311.876L309.232 313.234C306.245 315.271 302.918 317.579 299.999 319.005C298.573 319.684 297.487 320.159 296.062 320.159C295.383 320.159 294.568 320.023 293.618 319.751C292.056 319.276 289.612 317.715 286.557 315.678L285.064 314.66C259.605 298.434 218.261 260.756 215.682 228.577V221.042C216.904 203.594 226.951 188.184 241.954 180.58L242.022 180.648ZM299.66 406.581H299.456H298.573C288.662 409.432 278.886 410.926 269.517 410.926C196.469 410.926 163.475 326.54 163.136 325.658L160.692 319.276L167.074 316.9C200.543 304.409 230.346 303.933 255.532 315.474C277.867 325.726 291.377 343.105 298.302 354.578C309.843 332.99 325.525 318.326 345.077 311.13C383.23 297.009 421.927 316.357 423.556 317.172L428.24 319.548L427.086 324.707C405.566 420.43 313.441 408.889 299.592 406.581H299.66Z" fill="#F46E4E"/>
<path d="M345.688 359.267C359.13 345.418 366.394 329.532 369.856 319.756C362.66 320.163 355.871 321.589 349.761 323.897C330.277 331.161 315.138 347.522 304.887 372.641L298.37 388.662L292.328 372.437C291.581 370.4 273.658 324.168 222.199 320.91C228.241 338.289 246.503 373.727 298.166 392.193C306.856 387.576 331.974 373.591 345.824 359.335L345.688 359.267Z" fill="#F46E4E"/>
<path d="M77.3246 208.089L80.8548 201.504C85.6749 203.473 89.5445 201.707 92.4637 196.276C94.5003 192.407 94.5682 188.333 91.038 186.5C87.2363 184.464 84.5207 187.519 80.2438 192.475C75.22 198.313 70.5357 202.862 63.4753 199.06C56.7544 195.462 56.3471 188.13 60.4204 180.594C64.8331 172.38 71.2825 169.732 78.1392 172.515L74.6769 178.897C70.9431 177.539 67.6165 179.169 65.3762 183.31C63.2717 187.247 63.5432 190.777 66.3267 192.271C69.5853 194.036 72.3008 191.049 76.3741 186.229C81.33 180.458 86.4895 175.435 94.1609 179.508C101.221 183.242 101.968 191.253 97.8269 199.128C92.6674 208.836 84.8602 211.687 77.4604 208.089H77.3246Z" fill="#132963"/>
<path d="M78.7502 151.26L83.4345 145.49L95.926 155.605L107.06 141.824L94.5682 131.709L99.2525 125.87L130.413 151.125L125.729 156.963L111.948 145.761L100.814 159.543L114.595 170.744L109.911 176.515L78.7502 151.26Z" fill="#132963"/>
<path d="M121.791 104.686L127.901 99.5947L164.832 120.912L158.722 126.003L150.169 120.708L138.492 130.484L142.158 139.853L136.387 144.673L121.791 104.618V104.686ZM136.387 125.121L145.213 117.721L136.93 112.561C132.721 109.914 128.784 106.791 128.784 106.791H128.716C128.716 106.791 131.431 112.154 132.857 115.956L136.387 125.121Z" fill="#132963"/>
<path d="M152.816 80.9936L159.537 77.3276L181.329 89.276C184.927 91.3126 190.223 94.9786 190.223 94.9786H190.358C190.358 94.9786 186.964 89.6154 185.063 86.1531L175.355 68.57L181.533 65.1756L200.881 100.274L194.16 103.94L172.436 92.0594C168.77 90.0227 163.475 86.2889 163.475 86.2889H163.407C163.407 86.2889 166.733 91.6521 168.702 95.1144L178.41 112.63L172.232 116.024L152.884 80.9257L152.816 80.9936Z" fill="#132963"/>
<path d="M199.524 57.5065L206.584 55.2662L209.435 64.0917C210.386 67.1467 211.2 70.2695 211.744 72.3062L222.538 50.1746L231.16 47.3911L221.044 67.4861L244.398 85.2729L236.116 87.9205L217.446 73.664L214.391 79.706L218.804 93.4874L211.744 95.7277L199.524 57.5065Z" fill="#132963"/>
<path d="M259.605 42.6422L267.548 41.6917L286.693 79.7772L278.75 80.7276L274.473 71.6305L259.401 73.3956L257.297 83.2395L249.829 84.122L259.605 42.6422ZM260.623 67.693L272.097 66.3352L267.955 57.5097C265.851 52.9612 264.289 48.209 264.289 48.209H264.154C264.154 48.209 263.475 54.1832 262.66 58.1207L260.555 67.693H260.623Z" fill="#132963"/>
<path d="M298.369 39.8555L317.242 41.1454C324.71 41.6885 329.802 46.3049 329.326 53.2974C328.987 58.0496 326.611 61.3762 321.248 62.666V62.8018C325.389 64.3633 326.815 66.943 326.883 71.8989C327.154 77.8052 326.882 81.0638 327.969 81.6748V82.0821L320.433 81.539C319.483 80.7923 319.686 77.7373 319.618 72.3062C319.551 67.554 317.446 65.3816 312.694 65.0421L304.14 64.4311L303.054 80.317L295.654 79.7739L298.437 39.7876L298.369 39.8555ZM304.479 58.7964L314.119 59.4753C318.804 59.8147 321.451 57.6423 321.723 53.9084C321.995 49.903 320.094 47.5269 315.274 47.1875L305.362 46.5086L304.479 58.7964Z" fill="#132963"/>
<path d="M358.179 75.4261L365.239 77.938C364.017 82.9618 366.394 86.5598 372.164 88.5965C376.305 90.0222 380.311 89.479 381.668 85.6773C383.094 81.604 379.632 79.3637 374.133 75.9014C367.616 71.8281 362.388 67.8905 365.036 60.287C367.548 53.0909 374.744 51.5973 382.823 54.4486C391.648 57.5715 395.178 63.5457 393.481 70.7418L386.624 68.2979C387.371 64.3603 385.334 61.3054 380.854 59.7439C376.645 58.2504 373.182 59.065 372.164 62.0521C370.942 65.5823 374.269 67.7548 379.7 71.0134C386.149 75.0188 391.92 79.3637 389 87.5782C386.353 95.1138 378.546 97.0826 370.195 94.1633C359.808 90.4974 355.803 83.2333 358.247 75.3583L358.179 75.4261Z" fill="#132963"/>
<path d="M400.949 91.1113L414.323 68.165L420.772 71.8989L407.466 94.7773C404.75 99.4616 405.905 103.331 410.86 106.183C415.545 108.898 419.686 108.016 422.401 103.331L435.64 80.5886L442.089 84.3903L428.715 107.337C423.963 115.551 416.224 116.502 407.67 111.546C399.048 106.522 396.129 99.3937 400.949 91.1792V91.1113Z" fill="#132963"/>
<path d="M457.364 95.3237L462.931 100.212L452.34 112.296L465.646 123.973L476.237 111.889L481.872 116.844L455.463 146.919L449.828 141.963L461.573 128.589L448.267 116.912L436.522 130.286L430.955 125.398L457.364 95.3237Z" fill="#132963"/>
<path d="M502.238 140.268L507.126 146.582L484.315 182.631L479.428 176.317L485.062 167.967L475.762 155.951L466.257 159.209L461.641 153.235L502.238 140.268ZM481.26 153.982L488.321 163.079L493.752 155C496.535 150.859 499.862 147.125 499.862 147.125C499.862 147.125 494.431 149.501 490.629 150.859L481.328 153.982H481.26Z" fill="#132963"/>
<path d="M498.708 181.748L502.103 188.401C497.758 191.252 497.011 195.462 499.794 200.893C501.763 204.762 505.09 207.138 508.62 205.305C512.422 203.337 511.471 199.331 509.91 193.018C508.009 185.618 506.923 179.1 514.051 175.434C520.772 171.972 527.086 175.774 530.955 183.377C535.232 191.66 533.671 198.516 527.493 202.522L524.166 196.072C527.425 193.764 528.036 190.098 525.864 185.889C523.827 181.884 520.772 180.119 517.988 181.612C514.662 183.309 515.612 187.179 517.242 193.289C519.21 200.621 520.365 207.749 512.625 211.687C505.565 215.353 498.505 211.415 494.431 203.54C489.407 193.764 491.512 185.753 498.64 181.68L498.708 181.748Z" fill="#132963"/>
<path d="M72.3687 293.555C85.2675 293.079 95.2471 300.819 95.7223 313.717C95.926 318.673 94.7719 322.814 92.5995 325.869C89.9518 329.468 86.1501 331.708 81.6015 332.387L81.33 324.308C85.9464 323.358 89.1372 319.624 88.9335 313.853C88.6619 305.571 81.7373 301.43 72.7082 301.769C63.4753 302.109 57.1617 307.268 57.4333 315.007C57.6369 321.457 62.1176 324.919 67.345 325.191L67.6165 333.269C63.2717 333.269 58.8589 331.368 55.8039 328.449C52.5453 325.394 50.7802 321.049 50.5765 315.211C50.1692 302.652 59.3341 294.03 72.3687 293.555Z" fill="#132963"/>
<path d="M97.0804 340.74L99.185 348.547L82.3486 353.095L87.3724 371.629L104.209 367.08L106.313 374.887L64.3582 386.293L62.2537 378.486L80.8551 373.462L75.8313 354.928L57.2299 359.952L55.1254 352.145L97.0804 340.74Z" fill="#132963"/>
<path d="M116.225 395.654L120.298 403.258L89.4769 437.745L85.4036 430.142L92.8713 422.199L85.0642 407.67L74.2699 409.436L70.4003 402.239L116.157 395.654H116.225ZM91.3099 406.584L97.2162 417.582L104.48 409.911C108.214 405.973 112.423 402.579 112.423 402.579V402.443C112.423 402.443 106.11 404.14 101.833 404.887L91.3778 406.584H91.3099Z" fill="#132963"/>
<path d="M132.45 423.289L145.824 438.836C151.119 445.014 151.459 452.414 145.688 457.369C141.751 460.764 137.406 461.443 132.314 458.32L132.178 458.456C134.147 462.868 133.265 465.855 129.463 469.725C125.118 474.409 122.47 476.785 122.742 478.075L122.402 478.347L117.039 472.169C116.836 470.879 119.415 468.639 123.557 464.498C127.155 460.764 127.29 457.505 123.896 453.568L117.854 446.507L104.751 457.777L99.524 451.667L132.45 423.289ZM122.606 442.434L129.463 450.377C132.789 454.246 136.455 454.586 139.51 451.938C142.769 449.087 143.176 445.76 139.782 441.823L132.721 433.676L122.606 442.434Z" fill="#132963"/>
<path d="M163.067 455.871L169.245 461.099L141.343 494.296L135.165 489.069L163.067 455.871Z" fill="#132963"/>
<path d="M176.441 467.483L206.584 485.745L202.986 491.651L191.377 484.591L172.504 515.819L165.579 511.61L184.452 480.381L172.843 473.389L176.441 467.415V467.483Z" fill="#132963"/>
<path d="M221.587 491.585L229.666 494.572L229.462 540.804L221.384 537.817L221.723 526.955L206.313 521.252L199.456 529.738L191.784 526.887L221.587 491.585ZM210.182 516.297L221.927 520.641L222.266 510.051C222.47 504.62 223.285 499.324 223.285 499.324H223.149C223.149 499.324 219.619 504.688 216.835 508.082L210.114 516.297H210.182Z" fill="#132963"/>
<path d="M251.933 501.424L271.417 504.004C275.898 504.615 279.157 506.176 281.126 508.688C283.026 510.928 283.841 513.712 283.366 516.97C282.755 521.451 279.971 524.031 275.151 524.846V525.049C280.311 527.018 283.23 531.227 282.551 536.658C282.008 540.46 280.243 543.311 277.527 545.076C274.744 547.045 270.942 547.86 266.326 547.249L246.163 544.533L251.933 501.492V501.424ZM266.462 540.528C268.906 540.867 270.806 540.392 272.164 539.374C273.386 538.491 274.269 537.065 274.472 535.232C275.083 530.82 272.232 528.24 267.955 527.697L256.686 526.203L254.988 538.966L266.529 540.528H266.462ZM267.887 521.655C272.028 522.198 274.948 520.569 275.423 516.835C275.898 513.304 273.726 510.928 269.788 510.385L258.994 508.96L257.5 520.297L267.887 521.723V521.655Z" fill="#132963"/>
<path d="M295.45 505.774L303.461 505.231L305.973 541.551L327.086 540.125L327.561 547.186L298.437 549.155L295.45 505.842V505.774Z" fill="#132963"/>
<path d="M333.196 502.305L363.814 493.887L365.647 500.54L342.768 506.786L345.619 517.173L365.85 511.606L367.547 517.852L347.317 523.418L350.575 535.231L373.929 528.85L375.83 535.638L344.737 544.192L333.264 502.305H333.196Z" fill="#132963"/>
<path d="M405.158 473.183L432.788 451.323L437.065 456.754L426.407 465.172L449.013 493.821L442.632 498.844L420.025 470.196L409.367 478.614L405.09 473.183H405.158Z" fill="#132963"/>
<path d="M438.763 445.427L451.797 429.609C456.957 423.363 464.221 421.802 470.059 426.622C474.065 429.949 475.422 434.09 473.25 439.589L473.386 439.725C477.391 437.077 480.514 437.416 484.927 440.471C490.29 444.002 493.073 446.174 494.227 445.699L494.567 445.97L489.339 452.284C488.117 452.691 485.47 450.519 480.718 447.192C476.441 444.273 473.25 444.68 469.923 448.686L464.017 455.814L477.323 466.812L472.164 472.99L438.695 445.359L438.763 445.427ZM459.265 451.944L465.986 443.866C469.244 439.928 468.973 436.262 465.85 433.683C462.524 430.967 459.197 431.103 455.87 435.108L449.014 443.458L459.333 451.944H459.265Z" fill="#132963"/>
<path d="M491.376 424.099L465.714 411.065L469.38 403.869L494.906 416.835C500.133 419.483 504.207 417.989 506.99 412.423C509.638 407.195 508.416 402.782 503.188 400.135L477.73 387.236L481.396 379.972L507.058 393.006C516.223 397.691 517.784 405.973 512.896 415.478C508.009 425.118 500.473 428.716 491.308 424.031L491.376 424.099Z" fill="#132963"/>
<path d="M512.965 380.041L515.001 372.166C520.568 372.98 524.234 370.129 525.864 363.68C527.018 359.131 525.999 354.786 521.858 353.768C517.31 352.614 515.273 356.551 512.014 362.797C508.28 370.197 504.479 376.239 496.061 374.067C488.118 372.03 485.742 364.427 488.05 355.465C490.562 345.689 496.672 341.209 504.615 342.431L502.646 350.034C498.369 349.627 495.246 352.139 493.956 357.095C492.734 361.779 493.956 365.377 497.283 366.26C501.152 367.278 503.257 363.476 506.244 357.298C509.91 349.898 514.119 343.313 523.216 345.689C531.566 347.862 534.485 356.076 532.109 365.377C529.122 376.918 521.655 381.942 512.965 380.041Z" fill="#132963"/>
<path d="M494.023 332.867L495.721 297.633L502.645 297.972L501.966 311.55L538.422 313.315L538.015 321.394L501.559 319.629L500.88 333.139L493.956 332.799L494.023 332.867Z" fill="#132963"/>
<path d="M62.5928 264.229C68.1419 264.229 72.6403 259.731 72.6403 254.182C72.6403 248.632 68.1419 244.134 62.5928 244.134C57.0437 244.134 52.5453 248.632 52.5453 254.182C52.5453 259.731 57.0437 264.229 62.5928 264.229Z" fill="#132963"/>
<path d="M522.604 264.229C528.153 264.229 532.652 259.731 532.652 254.182C532.652 248.632 528.153 244.134 522.604 244.134C517.055 244.134 512.557 248.632 512.557 254.182C512.557 259.731 517.055 264.229 522.604 264.229Z" fill="#132963"/>
<path d="M294.5 589C132.111 589 0 456.889 0 294.5C0 132.111 132.111 0 294.5 0C456.889 0 589 132.111 589 294.5C589 456.889 456.889 589 294.5 589ZM294.5 13.5777C139.579 13.5777 13.5777 139.579 13.5777 294.5C13.5777 449.421 139.579 575.422 294.5 575.422C449.421 575.422 575.422 449.421 575.422 294.5C575.422 139.579 449.421 13.5777 294.5 13.5777Z" fill="#132963"/>
</g>
<defs>
<clipPath id="clip0_656_38">
<rect width="589" height="589" fill="white"/>
</clipPath>
</defs>
</svg>
