<svg width="248" height="221" viewBox="0 0 248 221" fill="none" xmlns="http://www.w3.org/2000/svg">
<path d="M159.584 157.615C164.517 159.128 169.709 159.855 174.893 159.922C200.212 160.256 226.073 149.288 246.814 135.537C248.129 134.668 248.32 132.915 247.537 131.637C234.097 109.686 212.806 93.2907 187.963 86.4582C193.409 78.3259 196.867 68.7889 199.429 59.4429C202.441 48.4675 215.993 -0.487413 187.644 4.00015C174.822 6.03417 155.553 13.0165 144.02 21.3885C137.154 26.3743 130.385 33.0082 125.238 40.6161C118.48 31.6635 109.149 24.0444 101.354 18.5154C93.9749 13.2862 66.6824 -8.9569 58.2504 3.99261C54.3884 9.92608 54.4371 19.9763 54.1749 26.7339C53.7741 37.0725 55.0627 47.4711 58.0294 57.3902C59.6851 62.9266 62.0113 69.1972 65.1316 75.1045C57.6436 76.9662 50.3953 80.1651 44.3907 83.3641C35.2919 88.215 27.0285 94.4669 19.578 101.58C14.7046 106.236 10.2057 111.278 6.08528 116.616C3.9726 119.351 0.241695 123.003 0.0131962 126.719C-0.350154 132.641 6.87567 136.38 11.1048 139.065C19.1509 144.175 28.0736 147.782 37.3559 149.921C51.564 153.195 66.6637 152.869 80.7219 148.913C80.471 167.927 88.7831 187.739 99.2641 203.105C102.654 208.076 109.385 219.969 116.611 220.22C124.114 220.482 131.336 208.327 135.543 203.401C146.724 190.335 156.973 174.775 159.584 157.615ZM151.028 97.9318C149.961 91.2791 167.593 85.7989 178.351 89.8407C171.927 98.7259 152.141 104.892 151.028 97.9318ZM96.6008 136.305C93.5554 138.204 90.2252 139.717 86.8652 141.028C87.9927 135.72 92.5739 123.348 98.5561 122.025C106.572 120.254 105.302 127.3 102.512 131.896C100.732 133.623 98.7584 135.095 96.6008 136.305ZM113.955 212.605C111.562 211.571 107.554 205.098 105.827 202.719C100.658 195.602 96.3685 187.882 93.0871 179.723C89.1015 169.819 85.5542 158.218 86.1198 147.198C87.2773 146.786 88.4497 146.407 89.5847 145.943C96.2786 143.205 105.089 139.376 108.786 132.776C111.581 127.79 111.131 120.508 105.767 117.332C92.735 109.615 83.2429 131.72 81.1527 143.028C61.2396 149.164 39.0078 147.359 20.3833 137.96C17.2255 136.368 9.29552 133.042 7.61362 129.779C4.4034 123.554 15.465 113.803 19.1022 109.956C29.4521 99.0031 41.8921 89.7358 55.9467 84.1245C59.5952 82.6673 63.7943 81.229 68.1358 80.27C72.8406 87.5483 78.9764 93.6353 86.854 96.0926C102.778 101.052 106.239 85.7502 93.7351 77.8576C86.9738 73.5873 79.0138 72.8344 71.0351 73.9582C70.4657 72.9656 69.8889 71.9803 69.3644 70.9802C63.7718 60.3232 60.4867 48.4375 59.6177 36.4469C59.2169 30.9068 59.3217 25.3404 59.9923 19.8228C60.2882 17.4141 60.3556 13.4697 61.4719 11.2896C65.6223 3.20222 71.1774 6.51737 76.8712 9.39046C89.9443 15.9907 103.546 25.5164 113.734 36.0236C116.682 39.069 119.503 42.4591 121.904 46.1038C118.14 53.1461 115.892 60.8214 116.252 68.714C116.971 84.4355 132.996 80.3561 134.232 66.7024C134.91 59.2181 132.561 52.086 128.602 45.5382C134.281 35.7839 142.349 26.835 152.441 21.7256C173.669 10.9787 186.667 8.67873 189.308 8.8398C208.483 10.0048 195.642 53.3446 193.132 61.6492C190.667 69.804 187.423 78.1049 182.355 85.061C171.661 82.7685 157.846 81.6748 149.553 89.7846C144.803 94.4257 143.975 101.745 150.594 104.914C159.783 109.316 172.71 102.187 179.433 96.3323C181.235 94.7628 182.842 93.0247 184.363 91.2304C192.169 93.1746 199.665 96.1601 206.722 100.018C220.889 107.757 241.274 128.435 241.319 132.401C241.383 137.492 189.952 158.997 164.517 153.311C163.049 152.981 161.596 152.558 160.168 152.075C160.307 149.34 160.247 146.568 159.951 143.766C159.138 136.039 156.539 125.348 147.814 123.033C141.948 121.475 135.869 124.685 135.093 130.873C134.048 139.238 141.69 147.606 147.957 152.026C149.965 153.442 152.085 154.633 154.28 155.637C153.28 163.174 150.688 170.527 147.208 177.243C143.994 183.447 139.974 189.17 135.629 194.628C131.733 199.528 127.28 206.199 122.238 209.937C119.293 212.121 120.114 215.268 113.955 212.605ZM74.4139 79.2773C80.7969 78.7117 87.1012 79.6482 92.1057 83.5514C98.0354 88.1776 91.9034 92.3205 86.7229 90.1179C84.775 89.2901 82.9021 88.009 81.2876 86.7129C78.6542 84.589 76.3992 82.038 74.4139 79.2773ZM125.317 52.1609C126.051 53.7192 126.718 55.3037 127.238 56.9257C127.916 59.0197 130.595 69.5717 127.426 70.9465C118.934 74.6362 122.743 60.2895 123.462 57.6299C123.976 55.7532 124.601 53.9365 125.317 52.1609ZM154.699 149.722C150.365 148.939 134.202 132.3 142.694 127.981C149.249 124.651 156.318 137.754 154.699 149.722Z" fill="#C85438"/>
<path d="M139.185 104.65C141.799 96.222 136.207 86.9883 127.142 86.6924C127.033 86.6887 126.943 86.7299 126.846 86.7487C121.849 86.0781 116.016 88.7452 112.99 92.7533C107.161 100.462 111.682 110.973 119.863 114.667C128.842 118.716 136.432 113.524 139.185 104.65ZM123.609 109.359C118.481 107.624 114.705 102.099 117.406 96.8287C119.59 92.5622 125.658 89.8614 130.06 91.8243C133.173 93.8171 135.341 96.8326 134.648 101.069C133.772 106.415 129.183 111.243 123.609 109.359Z" fill="#C85438"/>
<path d="M185.76 29.5661C186.476 28.6222 185.165 27.5097 184.348 28.3787C169.361 44.3399 151.583 59.0687 139.914 77.8431C139.004 79.3114 141.139 80.9559 142.432 79.982C160.15 66.6691 172.567 46.9658 185.76 29.5661Z" fill="#C85438"/>
<path d="M215.078 125.443C194.738 123.499 175.458 112.999 155.069 112.108C152.713 112.007 152.308 115.569 154.264 116.449C163.868 120.776 175.233 122.147 185.497 124.282C195.363 126.335 204.912 127.372 214.939 127.938C216.352 128.013 216.494 125.578 215.078 125.443Z" fill="#C85438"/>
<path d="M108.886 80.4401C101.506 61.7407 88.1711 43.0975 75.0081 28.054C74.0941 27.0127 72.5358 28.0465 73.2213 29.2789C78.2707 38.3252 83.8184 47.0194 89.2724 55.8222C94.6777 64.5464 99.4237 73.9037 105.597 82.0996C106.811 83.7104 109.687 82.4704 108.886 80.4401Z" fill="#C85438"/>
<path d="M96.8756 105.076C85.5443 105.016 73.2241 108.84 62.3685 111.852C51.0672 114.987 40.3802 119.209 30.2701 125.142C29.3299 125.693 30.124 127.176 31.1204 126.824C41.9535 123.011 52.9664 119.67 64.0841 116.815C75.0184 114.006 87.1925 112.852 97.5686 108.432C99.3929 107.653 98.8535 105.083 96.8756 105.076Z" fill="#C85438"/>
<path d="M121.057 195.173C122.057 184.733 122.124 174.207 122.537 163.733C122.986 152.342 124.29 140.685 123.589 129.305C123.439 126.84 119.765 126.653 119.3 129.065C115.311 149.791 116.03 174.229 118.854 195.049C119.015 196.225 120.93 196.499 121.057 195.173Z" fill="#C85438"/>
</svg>
