<svg width="201" height="177" viewBox="0 0 201 177" fill="none" xmlns="http://www.w3.org/2000/svg">
<path d="M200.979 173.097C199.281 156.881 192.435 141.188 183.054 126.873C180.361 89.0313 162.937 53.9877 134.35 29.1774C104.876 3.60054 59.8055 -11.9924 24.7809 11.6899C-8.05738 33.8952 -7.89856 78.2746 23.1137 101.514C43.5238 116.814 68.7831 124.486 93.6148 127.901C106.702 129.703 119.937 130.282 133.134 130.376C146.723 130.469 161.93 128.057 175.091 132.401C183.427 145.919 188.52 160.278 194.682 175.011C196.215 178.694 201.37 176.799 200.979 173.097ZM169.185 123.882C155.853 121.57 141.33 123.502 128.163 123.084C106.855 122.398 85.3702 120.105 65.076 113.112C45.9606 106.519 21.2326 94.6901 12.2856 74.7845C3.25923 54.692 13.2384 31.4148 30.4178 19.9413C65.7967 -3.69112 110.898 17.8473 137.47 45.3562C156.317 64.8691 169.051 89.6608 175.353 116.141C171.188 110.794 166.705 105.746 162.101 100.96C157.997 85.7282 150.186 70.7087 144.298 56.356C143.492 54.3928 140.713 55.7203 141.373 57.6772C145.062 68.49 148.195 80.2626 152.347 91.3497C149.508 88.7384 146.65 86.2393 143.822 83.896C142.032 82.419 140.133 81.0354 138.295 79.5896C134.002 71.6311 127.687 64.8567 122.642 57.3843C115.998 47.5437 110.495 37.2232 107.399 25.6562C106.91 23.824 104.07 24.2104 104.479 26.1423C107.612 40.8939 114.917 56.8047 124.67 69.5682C113.194 61.672 101.078 54.5486 88.3627 48.896C79.8554 38.694 69.6442 30.1434 68.0563 15.342C67.8792 13.7091 65.1859 13.7839 65.2165 15.4355C65.3814 23.6993 68.1785 30.5859 72.7405 37.3603C74.2917 39.6662 76.0079 42.1092 77.8461 44.546C63.3416 39.1053 48.2752 35.5467 32.9156 34.5745C30.9247 34.4498 30.6255 37.4725 32.6103 37.728C46.6568 39.5353 60.4956 43.8791 73.8764 49.7499C57.4176 48.9584 39.6458 52.6042 27.1627 61.5349C25.7947 62.5134 26.8451 65.1745 28.5307 64.6759C38.4182 61.7593 47.7194 57.6211 57.9795 55.9384C67.1525 54.4302 76.1422 54.6359 85.2602 55.1719C87.7275 56.4432 90.1643 57.7894 92.5949 59.148C92.656 59.1854 92.7232 59.2415 92.7842 59.2789C92.8087 59.2913 92.8392 59.2851 92.8636 59.2976C102.415 64.6572 111.649 70.6401 120.364 77.0281C94.0973 73.3698 66.5051 81.8518 42.6994 92.5463C41.1176 93.2567 41.8443 95.9989 43.5788 95.5564C71.9771 88.2835 97.8471 79.5958 127.064 82.0762C130.24 84.5254 133.36 87.0121 136.383 89.5112C142.973 94.9644 149.221 100.829 155.084 107.061C133.629 99.8878 106.128 100.143 87.6359 111.872C86.1213 112.832 87.416 115.169 88.9673 114.926C102.464 112.813 114.831 108.607 128.713 108.594C139.492 108.582 149.807 110.532 160.232 112.776C163.346 116.353 166.37 120.03 169.185 123.882Z" fill="#806753"/>
</svg>
