<svg width="62" height="62" viewBox="0 0 62 62" fill="none" xmlns="http://www.w3.org/2000/svg">
<path fill-rule="evenodd" clip-rule="evenodd" d="M0.277832 3.36348C0.277832 1.65905 1.65954 0.277344 3.36396 0.277344H18.1774C19.8818 0.277344 21.2635 1.65905 21.2635 3.36348C21.2635 5.0679 19.8818 6.44961 18.1774 6.44961H10.8145L24.063 19.698C25.2682 20.9033 25.2682 22.8573 24.063 24.0625C22.8578 25.2677 20.9037 25.2677 19.6985 24.0625L6.4501 10.8141V18.1769C6.4501 19.8813 5.06839 21.263 3.36396 21.263C1.65954 21.263 0.277832 19.8813 0.277832 18.1769V3.36348ZM41.0148 3.36348C41.0148 1.65905 42.3965 0.277344 44.1009 0.277344H58.9144C60.6188 0.277344 62.0005 1.65905 62.0005 3.36348V18.1769C62.0005 19.8813 60.6188 21.263 58.9144 21.263C57.2099 21.263 55.8282 19.8813 55.8282 18.1769V10.8141L42.5798 24.0625C41.3746 25.2677 39.4205 25.2677 38.2153 24.0625C37.0101 22.8573 37.0101 20.9033 38.2153 19.698L51.4638 6.44961H44.1009C42.3965 6.44961 41.0148 5.0679 41.0148 3.36348ZM24.063 38.2148C25.2682 39.4201 25.2682 41.3741 24.063 42.5793L10.8145 55.8277H18.1774C19.8818 55.8277 21.2635 57.2094 21.2635 58.9139C21.2635 60.6183 19.8818 62 18.1774 62H3.36396C1.65954 62 0.277832 60.6183 0.277832 58.9139V44.1004C0.277832 42.396 1.65954 41.0143 3.36396 41.0143C5.06839 41.0143 6.4501 42.396 6.4501 44.1004V51.4633L19.6985 38.2148C20.9037 37.0096 22.8578 37.0096 24.063 38.2148ZM38.2153 38.2148C39.4205 37.0096 41.3746 37.0096 42.5798 38.2148L55.8282 51.4633V44.1004C55.8282 42.396 57.2099 41.0143 58.9144 41.0143C60.6188 41.0143 62.0005 42.396 62.0005 44.1004V58.9139C62.0005 60.6183 60.6188 62 58.9144 62H44.1009C42.3965 62 41.0148 60.6183 41.0148 58.9139C41.0148 57.2094 42.3965 55.8277 44.1009 55.8277H51.4638L38.2153 42.5793C37.0101 41.3741 37.0101 39.4201 38.2153 38.2148Z" fill="#767676"/>
</svg>
